<svg width="24" height="23" viewBox="0 0 24 23" fill="none" xmlns="http://www.w3.org/2000/svg">
<path opacity="0.1" fill-rule="evenodd" clip-rule="evenodd" d="M0.851562 11.7743C0.851562 5.62346 5.83782 0.637207 11.9887 0.637207C18.1395 0.637207 23.1258 5.62346 23.1258 11.7743C23.1258 17.9252 18.1395 22.9114 11.9887 22.9114C5.83782 22.9114 0.851562 17.9252 0.851562 11.7743Z" fill="white"/>
<path fill-rule="evenodd" clip-rule="evenodd" d="M11.9889 5.83447C10.3758 5.83447 10.1733 5.84153 9.53973 5.87036C8.90739 5.89932 8.47576 5.99943 8.09808 6.14632C7.70741 6.29803 7.37602 6.50097 7.04586 6.83125C6.71546 7.16141 6.51251 7.49281 6.3603 7.88335C6.21304 8.26115 6.11281 8.6929 6.08435 9.325C6.05601 9.95859 6.04858 10.1612 6.04858 11.7743C6.04858 13.3875 6.05576 13.5893 6.08447 14.2229C6.11355 14.8553 6.21366 15.2869 6.36043 15.6646C6.51226 16.0552 6.71521 16.3866 7.04549 16.7168C7.37552 17.0472 7.70692 17.2506 8.09734 17.4023C8.47526 17.5492 8.90702 17.6493 9.53924 17.6783C10.1728 17.7071 10.3752 17.7142 11.9882 17.7142C13.6015 17.7142 13.8033 17.7071 14.4369 17.6783C15.0692 17.6493 15.5014 17.5492 15.8793 17.4023C16.2698 17.2506 16.6007 17.0472 16.9308 16.7168C17.2612 16.3866 17.4641 16.0552 17.6163 15.6647C17.7623 15.2869 17.8626 14.8551 17.8923 14.223C17.9207 13.5894 17.9282 13.3875 17.9282 11.7743C17.9282 10.1612 17.9207 9.95871 17.8923 9.32513C17.8626 8.69278 17.7623 8.26115 17.6163 7.88348C17.4641 7.49281 17.2612 7.16141 16.9308 6.83125C16.6004 6.50085 16.27 6.29791 15.8789 6.14632C15.5003 5.99943 15.0684 5.89932 14.436 5.87036C13.8024 5.84153 13.6007 5.83447 11.9871 5.83447H11.9889ZM11.4561 6.90487C11.6142 6.90462 11.7907 6.90487 11.9889 6.90487C13.5748 6.90487 13.7628 6.91056 14.3891 6.93902C14.9682 6.9655 15.2826 7.06227 15.4919 7.14358C15.7691 7.25124 15.9668 7.37993 16.1745 7.58783C16.3824 7.79572 16.5111 7.99372 16.619 8.27091C16.7003 8.48004 16.7972 8.79436 16.8236 9.3735C16.852 9.99966 16.8582 10.1878 16.8582 11.773C16.8582 13.3581 16.852 13.5462 16.8236 14.1724C16.7971 14.7515 16.7003 15.0659 16.619 15.275C16.5114 15.5522 16.3824 15.7496 16.1745 15.9573C15.9666 16.1652 15.7693 16.2939 15.4919 16.4016C15.2828 16.4833 14.9682 16.5798 14.3891 16.6063C13.7629 16.6347 13.5748 16.6409 11.9889 16.6409C10.4028 16.6409 10.2149 16.6347 9.58871 16.6063C9.00958 16.5795 8.69526 16.4828 8.48576 16.4015C8.20856 16.2938 8.01057 16.1651 7.80267 15.9572C7.59478 15.7493 7.46608 15.5518 7.35817 15.2745C7.27687 15.0654 7.17998 14.751 7.15362 14.1719C7.12516 13.5457 7.11946 13.3577 7.11946 11.7715C7.11946 10.1853 7.12516 9.99817 7.15362 9.37201C7.1801 8.79287 7.27687 8.47856 7.35817 8.26918C7.46583 7.99198 7.59478 7.79399 7.80267 7.58609C8.01057 7.3782 8.20856 7.2495 8.48576 7.1416C8.69514 7.05992 9.00958 6.9634 9.58871 6.93679C10.1367 6.91204 10.349 6.90462 11.4561 6.90338V6.90487ZM15.1596 7.89113C14.766 7.89113 14.4468 8.21003 14.4468 8.60367C14.4468 8.99718 14.766 9.31645 15.1596 9.31645C15.5531 9.31645 15.8723 8.99718 15.8723 8.60367C15.8723 8.21015 15.5531 7.89113 15.1596 7.89113ZM11.9889 8.72395C10.3044 8.72395 8.93858 10.0897 8.93858 11.7743C8.93858 13.4589 10.3044 14.8241 11.9889 14.8241C13.6735 14.8241 15.0388 13.4589 15.0388 11.7743C15.0388 10.0897 13.6735 8.72395 11.9889 8.72395ZM11.9889 9.79436C13.0823 9.79436 13.9689 10.6808 13.9689 11.7743C13.9689 12.8677 13.0823 13.7543 11.9889 13.7543C10.8954 13.7543 10.009 12.8677 10.009 11.7743C10.009 10.6808 10.8954 9.79436 11.9889 9.79436Z" fill="white"/>
</svg>
