<svg width="35" height="34" viewBox="0 0 35 34" fill="none" xmlns="http://www.w3.org/2000/svg">
<mask id="path-1-inside-1_211_2338" fill="white">
<path d="M20.3153 16.6106C20.1477 16.6106 19.9921 16.5645 19.8538 16.4904V16.4924C19.8538 16.7561 19.7513 17.0037 19.5654 17.1892C19.3794 17.3752 19.1319 17.4777 18.8685 17.4777C18.6985 17.4777 18.5409 17.4304 18.4012 17.3543C18.387 17.5956 18.2906 17.8211 18.1186 17.9933C17.9326 18.1792 17.6852 18.2817 17.4216 18.2817C16.898 18.2817 16.4727 17.8701 16.4421 17.3542C16.2801 17.4418 16.0969 17.4877 15.9079 17.4755C15.3928 17.4418 14.9894 16.9967 14.9894 16.462V12.0304L14.4848 12.9047C14.2926 13.239 13.9328 13.4466 13.5454 13.4466C13.3567 13.4466 13.1702 13.3971 13.0051 13.3025C12.7994 13.1833 12.6523 12.9919 12.5912 12.7629C12.5297 12.5338 12.5615 12.2943 12.6804 12.0889C12.6805 12.0889 14.3315 9.23002 14.4322 9.05441C14.4441 9.02801 14.4783 8.95143 14.5073 8.88616C14.535 8.82384 14.5588 8.75988 14.5816 8.6956C15.0794 7.29004 16.3122 6.41693 17.7989 6.41693C19.7296 6.41693 21.3003 8.12015 21.3003 10.2137L21.3005 15.6252C21.3005 15.8886 21.1982 16.136 21.0124 16.3222C20.8264 16.5082 20.5789 16.6107 20.3153 16.6107L20.3153 16.6106ZM17.799 6.94048C16.5214 6.94048 15.5032 7.66207 15.075 8.87069C15.0477 8.94744 15.0191 9.02418 14.9858 9.09897C14.8892 9.3156 14.8892 9.3156 14.862 9.34676L14.8584 9.34364C14.7236 9.59799 14.3231 10.2915 13.1337 12.3509C13.0848 12.4354 13.0719 12.5335 13.0968 12.6273C13.1221 12.7211 13.1826 12.8001 13.2664 12.8485C13.5265 12.9979 13.8827 12.9015 14.0309 12.6432L15.0245 10.9229C15.0839 10.8204 15.2039 10.77 15.3191 10.8012C15.4335 10.8319 15.5131 10.9357 15.5131 11.0541V16.4622C15.5131 16.7174 15.7056 16.9376 15.9423 16.9532C16.0787 16.9604 16.206 16.9146 16.3016 16.8192C16.3885 16.7323 16.4364 16.6165 16.4364 16.4927V12.9557C16.4364 12.8111 16.5536 12.6938 16.6983 12.6938C16.8429 12.6938 16.9602 12.8109 16.9602 12.9557L16.96 17.2967C16.96 17.5512 17.1671 17.7583 17.4216 17.7583C17.5453 17.7583 17.6614 17.7104 17.7485 17.6235C17.8354 17.5364 17.8833 17.4203 17.8833 17.2966V12.9557C17.8833 12.8111 18.0004 12.6938 18.1452 12.6938C18.2898 12.6938 18.4071 12.8109 18.4071 12.9557L18.4069 16.452V16.4927C18.4069 16.747 18.614 16.9541 18.8687 16.9541C18.9922 16.9541 19.108 16.9061 19.1955 16.8189C19.2825 16.7321 19.3303 16.6163 19.3303 16.4925V12.9555C19.3303 12.8109 19.4474 12.6936 19.5922 12.6936C19.7369 12.6936 19.8541 12.8107 19.8541 12.9555L19.8538 15.6253C19.8538 15.88 20.0609 16.0871 20.3153 16.0871C20.4391 16.0871 20.5549 16.0391 20.6418 15.9523C20.729 15.8651 20.7767 15.749 20.7767 15.6253L20.7769 10.2138C20.7769 8.40911 19.441 6.94053 17.7989 6.94053L17.799 6.94048Z"/>
</mask>
<path d="M20.3153 16.6106C20.1477 16.6106 19.9921 16.5645 19.8538 16.4904V16.4924C19.8538 16.7561 19.7513 17.0037 19.5654 17.1892C19.3794 17.3752 19.1319 17.4777 18.8685 17.4777C18.6985 17.4777 18.5409 17.4304 18.4012 17.3543C18.387 17.5956 18.2906 17.8211 18.1186 17.9933C17.9326 18.1792 17.6852 18.2817 17.4216 18.2817C16.898 18.2817 16.4727 17.8701 16.4421 17.3542C16.2801 17.4418 16.0969 17.4877 15.9079 17.4755C15.3928 17.4418 14.9894 16.9967 14.9894 16.462V12.0304L14.4848 12.9047C14.2926 13.239 13.9328 13.4466 13.5454 13.4466C13.3567 13.4466 13.1702 13.3971 13.0051 13.3025C12.7994 13.1833 12.6523 12.9919 12.5912 12.7629C12.5297 12.5338 12.5615 12.2943 12.6804 12.0889C12.6805 12.0889 14.3315 9.23002 14.4322 9.05441C14.4441 9.02801 14.4783 8.95143 14.5073 8.88616C14.535 8.82384 14.5588 8.75988 14.5816 8.6956C15.0794 7.29004 16.3122 6.41693 17.7989 6.41693C19.7296 6.41693 21.3003 8.12015 21.3003 10.2137L21.3005 15.6252C21.3005 15.8886 21.1982 16.136 21.0124 16.3222C20.8264 16.5082 20.5789 16.6107 20.3153 16.6107L20.3153 16.6106ZM17.799 6.94048C16.5214 6.94048 15.5032 7.66207 15.075 8.87069C15.0477 8.94744 15.0191 9.02418 14.9858 9.09897C14.8892 9.3156 14.8892 9.3156 14.862 9.34676L14.8584 9.34364C14.7236 9.59799 14.3231 10.2915 13.1337 12.3509C13.0848 12.4354 13.0719 12.5335 13.0968 12.6273C13.1221 12.7211 13.1826 12.8001 13.2664 12.8485C13.5265 12.9979 13.8827 12.9015 14.0309 12.6432L15.0245 10.9229C15.0839 10.8204 15.2039 10.77 15.3191 10.8012C15.4335 10.8319 15.5131 10.9357 15.5131 11.0541V16.4622C15.5131 16.7174 15.7056 16.9376 15.9423 16.9532C16.0787 16.9604 16.206 16.9146 16.3016 16.8192C16.3885 16.7323 16.4364 16.6165 16.4364 16.4927V12.9557C16.4364 12.8111 16.5536 12.6938 16.6983 12.6938C16.8429 12.6938 16.9602 12.8109 16.9602 12.9557L16.96 17.2967C16.96 17.5512 17.1671 17.7583 17.4216 17.7583C17.5453 17.7583 17.6614 17.7104 17.7485 17.6235C17.8354 17.5364 17.8833 17.4203 17.8833 17.2966V12.9557C17.8833 12.8111 18.0004 12.6938 18.1452 12.6938C18.2898 12.6938 18.4071 12.8109 18.4071 12.9557L18.4069 16.452V16.4927C18.4069 16.747 18.614 16.9541 18.8687 16.9541C18.9922 16.9541 19.108 16.9061 19.1955 16.8189C19.2825 16.7321 19.3303 16.6163 19.3303 16.4925V12.9555C19.3303 12.8109 19.4474 12.6936 19.5922 12.6936C19.7369 12.6936 19.8541 12.8107 19.8541 12.9555L19.8538 15.6253C19.8538 15.88 20.0609 16.0871 20.3153 16.0871C20.4391 16.0871 20.5549 16.0391 20.6418 15.9523C20.729 15.8651 20.7767 15.749 20.7767 15.6253L20.7769 10.2138C20.7769 8.40911 19.441 6.94053 17.7989 6.94053L17.799 6.94048Z" fill="#4CAF4F"/>
<path d="M20.3153 16.6106V15.6825H23.5943L20.8017 17.401L20.3153 16.6106ZM19.8538 16.4904H18.9257V14.9397L20.2924 15.6725L19.8538 16.4904ZM19.5654 17.1892L18.9091 16.5329L18.91 16.5321L19.5654 17.1892ZM18.4012 17.3543L17.4746 17.3002L17.56 15.8395L18.845 16.5393L18.4012 17.3543ZM18.1186 17.9933L18.7752 18.6492L18.7749 18.6495L18.1186 17.9933ZM16.4421 17.3542L16.0008 16.5377L17.2822 15.8452L17.3685 17.2992L16.4421 17.3542ZM15.9079 17.4755L15.8484 18.4017L15.8472 18.4016L15.9079 17.4755ZM14.9894 12.0304L14.1856 11.5665L15.9175 8.56604V12.0304H14.9894ZM14.4848 12.9047L13.6801 12.4422L13.681 12.4407L14.4848 12.9047ZM13.0051 13.3025L12.5437 14.1078L12.5396 14.1054L13.0051 13.3025ZM12.5912 12.7629L13.4875 12.5223L13.4878 12.5234L12.5912 12.7629ZM12.6804 12.0889L11.8772 11.6239L12.1453 11.1608H12.6804V12.0889ZM14.4322 9.05441L15.2774 9.43767L15.2592 9.47786L15.2373 9.51614L14.4322 9.05441ZM14.5073 8.88616L13.6593 8.50903L13.6593 8.50902L14.5073 8.88616ZM14.5816 8.6956L15.4564 9.00547L15.4563 9.00572L14.5816 8.6956ZM21.3003 10.2137L20.3722 10.2137V10.2137H21.3003ZM21.3005 15.6252L22.2286 15.6252V15.6252H21.3005ZM21.0124 16.3222L21.6692 16.9778L21.6686 16.9784L21.0124 16.3222ZM20.3153 16.6107V17.5387H17.0363L19.8288 15.8202L20.3153 16.6107ZM17.799 6.94048V6.01239H19.0294L18.6913 7.19545L17.799 6.94048ZM15.075 8.87069L15.9499 9.18061L15.9491 9.1826L15.075 8.87069ZM14.9858 9.09897L15.8337 9.47642L15.8335 9.47691L14.9858 9.09897ZM14.862 9.34676L15.5609 9.95741L14.9538 10.6523L14.2554 10.0492L14.862 9.34676ZM14.8584 9.34364L14.0384 8.90904L14.5837 7.88008L15.465 8.64124L14.8584 9.34364ZM13.1337 12.3509L13.9374 12.8151L13.937 12.8158L13.1337 12.3509ZM13.0968 12.6273L12.2006 12.8685L12.1998 12.8656L13.0968 12.6273ZM13.2664 12.8485L12.8041 13.6533L12.8024 13.6523L13.2664 12.8485ZM14.0309 12.6432L13.226 12.1812L13.2272 12.179L14.0309 12.6432ZM15.0245 10.9229L14.2209 10.4587L14.2214 10.4577L15.0245 10.9229ZM15.3191 10.8012L15.0789 11.6977L15.0766 11.6971L15.3191 10.8012ZM15.9423 16.9532L15.8932 17.8801L15.8813 17.8793L15.9423 16.9532ZM16.3016 16.8192L16.9578 17.4755L16.9572 17.476L16.3016 16.8192ZM16.9602 12.9557H17.8882V12.9557L16.9602 12.9557ZM16.96 17.2967H16.0319V17.2966L16.96 17.2967ZM17.7485 17.6235L18.4053 18.2791L18.4041 18.2804L17.7485 17.6235ZM18.4071 12.9557H19.3352V12.9557L18.4071 12.9557ZM18.4069 16.452H17.4788V16.452L18.4069 16.452ZM19.1955 16.8189L19.8512 17.4757L19.8506 17.4763L19.1955 16.8189ZM19.8541 12.9555H20.7822V12.9556L19.8541 12.9555ZM19.8538 15.6253H18.9257V15.6252L19.8538 15.6253ZM20.6418 15.9523L21.298 16.6086L21.2974 16.6092L20.6418 15.9523ZM20.7767 15.6253H19.8486V15.6253L20.7767 15.6253ZM20.7769 10.2138H21.705V10.2139L20.7769 10.2138ZM17.7989 6.94053V7.86862H16.5685L16.9066 6.68556L17.7989 6.94053ZM20.3153 17.5387C19.9735 17.5387 19.6684 17.4441 19.4152 17.3084L20.2924 15.6725C20.3044 15.6789 20.312 15.6814 20.315 15.6822C20.3176 15.6829 20.3173 15.6825 20.3153 15.6825V17.5387ZM20.7819 16.4904V16.4924H18.9257V16.4904H20.7819ZM20.7819 16.4924C20.7819 17.0015 20.5821 17.4859 20.2207 17.8463L18.91 16.5321C18.9166 16.5255 18.9199 16.5198 18.9218 16.5152C18.9237 16.5105 18.9257 16.5034 18.9257 16.4924H20.7819ZM20.2216 17.8455C19.8614 18.2056 19.3779 18.4058 18.8685 18.4058V16.5496C18.8792 16.5496 18.8862 16.5476 18.8909 16.5457C18.8957 16.5437 18.9018 16.5402 18.9091 16.5329L20.2216 17.8455ZM18.8685 18.4058C18.5223 18.4058 18.2134 18.3089 17.9573 18.1694L18.845 16.5393C18.8571 16.5459 18.8648 16.5484 18.8678 16.5492C18.8704 16.5499 18.8702 16.5496 18.8685 16.5496V18.4058ZM19.3277 17.4085C19.301 17.8653 19.1156 18.3084 18.7752 18.6492L17.462 17.3374C17.4654 17.3339 17.4674 17.3309 17.4691 17.327C17.4709 17.3229 17.4738 17.3144 17.4746 17.3002L19.3277 17.4085ZM18.7749 18.6495C18.4146 19.0098 17.931 19.2098 17.4216 19.2098V17.3536C17.4324 17.3536 17.4395 17.3517 17.4442 17.3497C17.449 17.3478 17.4551 17.3443 17.4623 17.337L18.7749 18.6495ZM17.4216 19.2098C16.397 19.2098 15.5748 18.4057 15.5156 17.4092L17.3685 17.2992C17.3695 17.3149 17.3759 17.3288 17.3874 17.3397C17.3929 17.345 17.3986 17.3484 17.4035 17.3504C17.4078 17.3522 17.4133 17.3536 17.4216 17.3536V19.2098ZM16.8834 18.1707C16.5836 18.3327 16.2281 18.4261 15.8484 18.4017L15.9674 16.5494C15.9675 16.5494 15.9694 16.5496 15.9743 16.5484C15.9796 16.5472 15.9886 16.5443 16.0008 16.5377L16.8834 18.1707ZM15.8472 18.4016C14.8167 18.3341 14.0613 17.4577 14.0613 16.462H15.9175C15.9175 16.4934 15.9289 16.5176 15.9432 16.5334C15.9571 16.5487 15.9666 16.5493 15.9687 16.5494L15.8472 18.4016ZM14.0613 16.462V12.0304H15.9175V16.462H14.0613ZM15.7932 12.4944L15.2886 13.3686L13.681 12.4407L14.1856 11.5665L15.7932 12.4944ZM15.2894 13.3672C14.9308 13.9911 14.2633 14.3747 13.5454 14.3747V12.5186C13.6023 12.5186 13.6544 12.487 13.6801 12.4422L15.2894 13.3672ZM13.5454 14.3747C13.1945 14.3747 12.849 14.2827 12.5437 14.1078L13.4665 12.4972C13.4915 12.5115 13.5189 12.5186 13.5454 12.5186V14.3747ZM12.5396 14.1054C12.1229 13.8638 11.8196 13.4707 11.6945 13.0025L13.4878 12.5234C13.487 12.5202 13.4847 12.5146 13.4802 12.5088C13.4757 12.503 13.4716 12.5002 13.4706 12.4996L12.5396 14.1054ZM11.6948 13.0035C11.5692 12.5357 11.635 12.0422 11.8772 11.6239L13.4835 12.554C13.4849 12.5517 13.4872 12.5464 13.4882 12.5389C13.4892 12.5314 13.4883 12.5254 13.4875 12.5223L11.6948 13.0035ZM12.6804 11.1608C12.2251 11.2802 11.8844 11.6117 11.8818 11.616C11.881 11.6175 11.8797 11.6196 11.8793 11.6203C11.8791 11.6207 11.8787 11.6214 11.8785 11.6216C11.8785 11.6217 11.8783 11.622 11.8782 11.6221C11.8781 11.6223 11.8782 11.6223 11.8785 11.6216C11.8791 11.6206 11.8802 11.6187 11.8817 11.6161C11.8848 11.6108 11.8894 11.6029 11.8954 11.5924C11.9075 11.5715 11.9253 11.5408 11.9479 11.5015C11.9933 11.423 12.0581 11.3107 12.1363 11.1753C12.2927 10.9046 12.5022 10.5418 12.7148 10.1735C13.1408 9.4356 13.5776 8.67895 13.6271 8.59269L15.2373 9.51614C15.186 9.60549 14.747 10.3661 14.3223 11.1016C14.1096 11.4699 13.9001 11.8328 13.7437 12.1036C13.6655 12.239 13.6006 12.3514 13.5552 12.43C13.5325 12.4692 13.5147 12.5001 13.5025 12.5211C13.4965 12.5317 13.4918 12.5398 13.4885 12.5454C13.487 12.5481 13.4856 12.5504 13.4847 12.552C13.4842 12.5528 13.4837 12.5538 13.4831 12.5547C13.4829 12.555 13.4823 12.5561 13.4816 12.5573C13.4812 12.5581 13.4799 12.5603 13.479 12.5617C13.4764 12.5661 13.1356 12.8977 12.6804 13.017V11.1608ZM13.5869 8.67115C13.5971 8.64862 13.6295 8.57598 13.6593 8.50903L15.3553 9.26328C15.327 9.32688 15.2912 9.4074 15.2774 9.43767L13.5869 8.67115ZM13.6593 8.50902C13.6722 8.48002 13.6864 8.44296 13.7068 8.38547L15.4563 9.00572C15.4311 9.07681 15.3978 9.16766 15.3553 9.2633L13.6593 8.50902ZM13.7067 8.38572C14.3353 6.61111 15.9175 5.48884 17.7989 5.48884V7.34503C16.7069 7.34503 15.8235 7.96897 15.4564 9.00547L13.7067 8.38572ZM17.7989 5.48884C20.3115 5.48884 22.2284 7.67978 22.2284 10.2137H20.3722C20.3722 8.56052 19.1477 7.34503 17.7989 7.34503V5.48884ZM22.2284 10.2137L22.2286 15.6252L20.3724 15.6252L20.3722 10.2137L22.2284 10.2137ZM22.2286 15.6252C22.2286 16.1341 22.0289 16.6175 21.6692 16.9778L20.3555 15.6665C20.3628 15.6592 20.3664 15.6529 20.3684 15.6481C20.3704 15.6432 20.3724 15.636 20.3724 15.6252H22.2286ZM21.6686 16.9784C21.3084 17.3387 20.8247 17.5387 20.3153 17.5387V15.6826C20.3262 15.6826 20.3333 15.6806 20.338 15.6786C20.3428 15.6767 20.3489 15.6732 20.3561 15.6659L21.6686 16.9784ZM19.8288 15.8202L19.8289 15.8202L20.8017 17.401L20.8017 17.4011L19.8288 15.8202ZM17.799 7.86857C16.9166 7.86857 16.2474 8.34061 15.9499 9.18061L14.2002 8.56077C14.759 6.98352 16.1263 6.01239 17.799 6.01239V7.86857ZM15.9491 9.1826C15.9199 9.2647 15.8818 9.36839 15.8337 9.47642L14.138 8.72151C14.1564 8.67998 14.1755 8.63017 14.2009 8.55877L15.9491 9.1826ZM15.8335 9.47691C15.791 9.57223 15.7554 9.65273 15.7281 9.70726C15.7112 9.7411 15.6838 9.79326 15.6441 9.85103C15.6039 9.90956 15.5641 9.95371 15.5609 9.95741L14.1631 8.7361C14.1653 8.73361 14.1646 8.73442 14.1635 8.7357C14.1621 8.73734 14.1585 8.74155 14.1537 8.74732C14.1488 8.75329 14.1426 8.76101 14.1357 8.77019C14.1287 8.77945 14.1215 8.7893 14.1144 8.79969C14.0998 8.82085 14.0887 8.83938 14.0807 8.8534C14.0733 8.86648 14.0687 8.87553 14.0677 8.87757C14.0666 8.87968 14.0673 8.87844 14.0704 8.87169C14.0735 8.86514 14.0778 8.85572 14.084 8.84201C14.0902 8.82841 14.0976 8.81199 14.1066 8.7917C14.1157 8.77144 14.126 8.74823 14.1382 8.72102L15.8335 9.47691ZM14.2554 10.0492L14.2518 10.046L15.465 8.64124L15.4686 8.64435L14.2554 10.0492ZM15.6785 9.77824C15.5332 10.0523 15.1185 10.77 13.9374 12.8151L12.33 11.8868C13.5278 9.81297 13.914 9.14367 14.0384 8.90904L15.6785 9.77824ZM13.937 12.8158C14.0113 12.6874 14.032 12.5326 13.9938 12.3889L12.1998 12.8656C12.1118 12.5343 12.1584 12.1833 12.3304 11.8861L13.937 12.8158ZM13.993 12.386C13.9548 12.2441 13.8609 12.1201 13.7304 12.0447L12.8024 13.6523C12.5042 13.4802 12.2893 13.198 12.2006 12.8685L13.993 12.386ZM13.7286 12.0437C13.623 11.983 13.5202 11.9834 13.4493 12.0025C13.3786 12.0216 13.288 12.0731 13.226 12.1812L14.8358 13.1052C14.4314 13.8099 13.507 14.057 12.8041 13.6533L13.7286 12.0437ZM13.2272 12.179L14.2209 10.4587L15.8282 11.3871L14.8346 13.1074L13.2272 12.179ZM14.2214 10.4577C14.4895 9.99489 15.0367 9.76328 15.5615 9.90534L15.0766 11.6971C15.3712 11.7768 15.6783 11.6459 15.8276 11.388L14.2214 10.4577ZM15.5592 9.90472C16.0799 10.0442 16.4412 10.516 16.4412 11.0541H14.585C14.585 11.3553 14.7872 11.6195 15.0789 11.6977L15.5592 9.90472ZM16.4412 11.0541V16.4622H14.585V11.0541H16.4412ZM16.4412 16.4622C16.4412 16.3564 16.402 16.2603 16.3377 16.1867C16.2735 16.1133 16.1601 16.0374 16.0032 16.0271L15.8813 17.8793C15.1 17.8279 14.585 17.1473 14.585 16.4622H16.4412ZM15.9913 16.0264C15.8816 16.0206 15.7477 16.0607 15.6459 16.1624L16.9572 17.476C16.6642 17.7685 16.2758 17.9002 15.8932 17.88L15.9913 16.0264ZM15.6453 16.1629C15.5572 16.251 15.5083 16.3717 15.5083 16.4927H17.3645C17.3645 16.8613 17.2197 17.2136 16.9578 17.4755L15.6453 16.1629ZM15.5083 16.4927V12.9557H17.3645V16.4927H15.5083ZM15.5083 12.9557C15.5083 12.2985 16.041 11.7657 16.6983 11.7657V13.6219C17.0662 13.6219 17.3645 13.3236 17.3645 12.9557H15.5083ZM16.6983 11.7657C17.3551 11.7657 17.8882 12.298 17.8882 12.9557H16.0321C16.0321 13.3238 16.3307 13.6219 16.6983 13.6219V11.7657ZM17.8882 12.9557L17.8881 17.2967L16.0319 17.2966L16.0321 12.9557L17.8882 12.9557ZM17.8881 17.2967C17.8881 17.0386 17.6797 16.8302 17.4216 16.8302V18.6864C16.6545 18.6864 16.0319 18.0637 16.0319 17.2967H17.8881ZM17.4216 16.8302C17.3008 16.8302 17.1807 16.8789 17.0928 16.9666L18.4041 18.2804C18.142 18.5419 17.7897 18.6864 17.4216 18.6864V16.8302ZM17.0916 16.9678C17.0038 17.0558 16.9552 17.1759 16.9552 17.2966H18.8114C18.8114 17.6647 18.6669 18.0171 18.4053 18.2791L17.0916 16.9678ZM16.9552 17.2966V12.9557H18.8114V17.2966H16.9552ZM16.9552 12.9557C16.9552 12.2989 17.4874 11.7657 18.1452 11.7657V13.6219C18.5133 13.6219 18.8114 13.3232 18.8114 12.9557H16.9552ZM18.1452 11.7657C18.802 11.7657 19.3352 12.2979 19.3352 12.9557H17.479C17.479 13.3238 17.7776 13.6219 18.1452 13.6219V11.7657ZM19.3352 12.9557L19.335 16.4521L17.4788 16.452L17.479 12.9557L19.3352 12.9557ZM19.335 16.452V16.4927H17.4788V16.452H19.335ZM19.335 16.4927C19.335 16.234 19.1261 16.0261 18.8687 16.0261V17.8822C18.1019 17.8822 17.4788 17.2601 17.4788 16.4927H19.335ZM18.8687 16.0261C18.7454 16.0261 18.626 16.0762 18.5405 16.1614L19.8506 17.4763C19.5899 17.736 19.239 17.8822 18.8687 17.8822V16.0261ZM18.5399 16.162C18.4511 16.2506 18.4022 16.3717 18.4022 16.4925H20.2584C20.2584 16.861 20.1138 17.2136 19.8512 17.4757L18.5399 16.162ZM18.4022 16.4925V12.9555H20.2584V16.4925H18.4022ZM18.4022 12.9555C18.4022 12.2987 18.9345 11.7655 19.5922 11.7655V13.6217C19.9604 13.6217 20.2584 13.3231 20.2584 12.9555H18.4022ZM19.5922 11.7655C20.2491 11.7655 20.7822 12.2978 20.7822 12.9555H18.926C18.926 13.3237 19.2247 13.6217 19.5922 13.6217V11.7655ZM20.7822 12.9556L20.7819 15.6254L18.9257 15.6252L18.926 12.9554L20.7822 12.9556ZM20.7819 15.6253C20.7819 15.3679 20.5739 15.159 20.3153 15.159V17.0152C19.5479 17.0152 18.9257 16.3921 18.9257 15.6253H20.7819ZM20.3153 15.159C20.1935 15.159 20.0734 15.2083 19.9861 15.2954L21.2974 16.6092C21.0363 16.8698 20.6846 17.0152 20.3153 17.0152V15.159ZM19.9855 15.2961C19.8971 15.3844 19.8486 15.5051 19.8486 15.6253H21.7048C21.7048 15.9929 21.5609 16.3457 21.298 16.6086L19.9855 15.2961ZM19.8486 15.6253L19.8488 10.2138L21.705 10.2139L21.7048 15.6254L19.8486 15.6253ZM19.8488 10.2138C19.8488 8.8371 18.8478 7.86862 17.7989 7.86862V6.01244C20.0343 6.01244 21.705 7.98112 21.705 10.2138H19.8488ZM16.9066 6.68556L16.9066 6.68551L18.6913 7.19545L18.6913 7.1955L16.9066 6.68556Z" fill="#4CAF4F" mask="url(#path-1-inside-1_211_2338)"/>
<path d="M11.8327 21.5856C11.7084 21.6603 11.5477 21.62 11.4734 21.4959C11.3989 21.3719 11.4393 21.211 11.5631 21.1365M11.8327 21.5856L14.0953 18.541C14.3139 18.4097 14.6022 18.4615 14.737 18.6565M11.8327 21.5856L14.8656 19.7661H14.8657L14.8661 19.7659M11.8327 21.5856L16.0301 20.1442C16.136 20.0806 16.2108 19.9799 16.2406 19.8603M11.5631 21.1365L14.5961 19.317C14.7021 19.2534 14.777 19.1526 14.8069 19.0333M11.5631 21.1365L11.5938 21.1877L11.6978 21.3611L11.698 21.3614L11.7449 21.4396L11.8018 21.5345L11.8019 21.5344L11.802 21.5344L11.8022 21.5342M11.5631 21.1365L11.5939 21.1877M14.8069 19.0333C14.8397 18.9025 14.8147 18.7687 14.737 18.6565M14.8069 19.0333L14.8817 19.0521L14.8746 18.8982C14.8696 18.7923 14.8387 18.6983 14.7862 18.6227L14.7861 18.6225L14.737 18.6565M14.8069 19.0333L14.8817 19.0521L14.8891 19.2109L14.7373 19.302H14.737L14.6268 19.3681L14.6268 19.3681L14.6268 19.3682L11.594 21.1876M14.737 18.6565L14.7861 18.6225L12.5467 22.775C12.642 22.7177 12.6735 22.5938 12.6157 22.4977C12.5585 22.4023 12.4342 22.371 12.3385 22.4284L15.3714 20.609C15.4411 20.5671 15.5141 20.5355 15.5887 20.5138L16.0591 20.1926L16.0591 20.1926L16.085 20.1749C16.1954 20.0995 16.2684 19.9951 16.2984 19.8749L16.2984 19.8748L16.2406 19.8603M11.594 21.1876C11.6894 21.1306 11.8136 21.1615 11.8712 21.2569C11.8713 21.2572 11.8715 21.2574 11.8716 21.2576C11.9288 21.3536 11.8973 21.4771 11.8022 21.5342M11.594 21.1876C11.5939 21.1876 11.5939 21.1877 11.5939 21.1877M11.594 21.1876L11.5939 21.1877M11.8022 21.5342L14.8349 19.715L14.8349 19.7149L14.8351 19.7148C14.8352 19.7148 14.8352 19.7147 14.8353 19.7147L14.8656 19.7651L14.8657 19.7653L14.8661 19.7659M11.8022 21.5342L11.6982 21.3613L11.698 21.3609L11.6629 21.3024L11.5939 21.1877M14.8661 19.7659V19.6954C14.9246 19.6571 14.9781 19.6127 15.026 19.5631L15.5252 19.3025L15.5252 19.3025L15.5528 19.2881C15.6331 19.2462 15.714 19.2266 15.7909 19.2266C15.8325 19.2266 15.8753 19.2317 15.919 19.2426C15.919 19.2426 15.9191 19.2426 15.9191 19.2426C15.9192 19.2426 15.9194 19.2427 15.9195 19.2427L16.0172 18.8503M14.8661 19.7659L15.5552 19.3525C15.6608 19.2892 15.7844 19.2706 15.9046 19.3005C16.0242 19.3303 16.125 19.4051 16.1885 19.5109C16.252 19.6168 16.2705 19.741 16.2406 19.8603M16.0172 18.8503C16.0172 18.8503 16.0172 18.8503 16.0172 18.8503M16.0172 18.8503C16.2563 18.91 16.4597 19.061 16.5863 19.272L16.6374 19.2414M16.0172 18.8503L16.0316 18.7924M16.0172 18.8503L15.9192 19.2426C16.0549 19.2765 16.1674 19.3599 16.2395 19.48C16.2395 19.4801 16.2395 19.4802 16.2396 19.4802C16.2396 19.4802 16.2396 19.4802 16.2396 19.4803C16.3119 19.601 16.3323 19.7394 16.2984 19.8746L16.2984 19.8748L16.2406 19.8603M16.0172 18.8503C16.0171 18.8503 16.0171 18.8503 16.017 18.8502L16.0164 18.8501C15.9447 18.8323 15.8721 18.8232 15.7998 18.8225M16.0172 18.8503L16.0316 18.7924M15.5796 20.9556L15.8412 20.7987L16.1109 20.9578C16.1917 21.0055 16.2528 21.0651 16.2941 21.1341L16.2942 21.1344C16.2942 21.1344 16.2943 21.1345 16.2943 21.1346L16.2434 21.1652M15.5796 20.9556L16.3534 21.5292C16.3871 21.3935 16.3665 21.2552 16.2944 21.1346L16.2434 21.1652M15.5796 20.9556L15.6103 21.0068M15.5796 20.9556L15.5795 20.9556L15.6103 21.0068M16.2434 21.1652C16.1124 20.9469 15.8282 20.8759 15.6103 21.0068M16.2434 21.1652C16.3071 21.271 16.3256 21.3953 16.2957 21.5148L15.6103 21.0068M16.6856 20.8849C16.6878 20.8885 16.69 20.8921 16.6922 20.8958L16.6856 20.8849ZM16.6856 20.8849C16.6699 20.8971 16.654 20.9091 16.6378 20.9207C16.6389 20.9225 16.64 20.9242 16.6411 20.926L16.6856 20.8849ZM16.6134 20.1771C16.6468 20.1131 16.6729 20.0446 16.6908 19.9729L16.6134 20.1771ZM16.6134 20.1771C16.63 20.1875 16.6465 20.1982 16.6629 20.2093C16.7001 20.14 16.7291 20.0657 16.7486 19.9872C16.8124 19.7322 16.7729 19.4674 16.6374 19.2414M16.6134 20.1771L16.6909 19.9728C16.7506 19.7336 16.7129 19.4833 16.5866 19.2724L16.5864 19.2721C16.5864 19.2721 16.5864 19.2721 16.5863 19.272L16.6374 19.2414M16.6374 19.2414C16.5021 19.0157 16.287 18.8562 16.0316 18.7924M16.0316 18.7924L15.7946 18.7625M15.7946 18.7625C15.7967 18.7826 15.7985 18.8026 15.7998 18.8225M15.7946 18.7625C15.7933 18.7625 15.7921 18.7625 15.7909 18.7625C15.634 18.7625 15.4798 18.8027 15.3381 18.8767M15.7946 18.7625L15.3381 18.8767M15.7998 18.8225C15.8005 18.8334 15.8012 18.8443 15.8017 18.8551L15.7909 18.8556L15.5028 18.869M15.7998 18.8225C15.7968 18.8225 15.7939 18.8225 15.7909 18.8225C15.693 18.8226 15.5958 18.8383 15.5028 18.869M15.5028 18.869L15.3381 18.8767M15.5028 18.869C15.4555 18.8847 15.4094 18.9042 15.3646 18.9275C15.3484 18.936 15.3324 18.945 15.3166 18.9544L15.3164 18.9545L15.2834 18.9743M15.3381 18.8767L15.0736 19.1002L15.0737 19.1001L15.257 19.146C15.257 19.1461 15.257 19.1461 15.257 19.1461C15.2713 19.0891 15.28 19.0316 15.2834 18.9743M15.3381 18.8767L15.2673 18.741M15.3381 18.8767C15.3308 18.7186 15.2891 18.5629 15.2091 18.4239C15.1909 18.432 15.1729 18.4404 15.155 18.4492M15.2834 18.9743C15.2853 18.9425 15.2855 18.9108 15.2841 18.8792C15.282 18.8326 15.2764 18.7864 15.2673 18.741M15.2834 18.9743L15.2673 18.741M15.2673 18.741L15.1234 18.4653C15.1339 18.4598 15.1444 18.4545 15.155 18.4492M15.2673 18.741L15.1185 18.3923C15.1314 18.4109 15.1436 18.4299 15.155 18.4492M15.2673 18.741C15.2469 18.6389 15.2091 18.5404 15.155 18.4492M16.3467 20.5581L16.426 20.4236C16.3916 20.4558 16.3547 20.4854 16.3154 20.5123C16.3003 20.5226 16.2848 20.5325 16.269 20.542L16.2688 20.5421L16.2353 20.5623L16.3467 20.5581ZM8.93587 18.3985L8.88311 18.3707C8.87341 18.3882 8.84927 18.4317 8.8136 18.4959C8.80477 18.5119 8.79523 18.529 8.78503 18.5474C8.80321 18.5565 8.82155 18.5644 8.83993 18.5714C8.8713 18.5148 8.90328 18.4572 8.93587 18.3985ZM13.0828 23.6691C13.0828 23.6692 13.0828 23.6692 13.0827 23.6692L13.0828 23.6691Z" fill="#4CAF4F" stroke="#4CAF4F" stroke-width="0.928093"/>
<path d="M24.7849 19.2346L24.7848 19.2347L24.7849 19.2346ZM24.7849 19.2346C24.6876 19.0605 24.6915 18.846 24.7945 18.6743L24.7849 19.2346ZM19.0432 18.8224C18.9707 18.823 18.8978 18.8322 18.8259 18.8502L19.0432 18.8224ZM19.0432 18.8224C19.0446 18.8024 19.0464 18.7825 19.0485 18.7625L19.0432 18.8224ZM24.3672 19.5601L24.3278 19.4891L24.3672 19.5601ZM23.249 21.1876C23.2489 21.1875 23.2488 21.1875 23.2487 21.1874L23.2489 21.1875L23.249 21.1876ZM21.7602 23.6695C21.7601 23.6695 21.76 23.6694 21.7599 23.6694L21.7602 23.6695ZM21.7597 23.6693L21.7598 23.6693L21.7597 23.6693Z" fill="#4CAF4F" stroke="#4CAF4F" stroke-width="0.928093"/>
</svg>
