<svg width="46" height="40" viewBox="0 0 46 40" fill="none" xmlns="http://www.w3.org/2000/svg">
<path d="M45.7925 26.8834C45.7925 33.8031 40.1829 39.4126 33.2632 39.4126L14.4694 39.4126C12.5472 39.4126 10.989 37.8544 10.989 35.9322L10.989 12.2659C10.989 8.4216 14.1054 5.30519 17.9497 5.30519L42.3121 5.30519C44.2343 5.30519 45.7925 6.8634 45.7925 8.78554L45.7925 26.8834Z" fill="#E8F5E9"/>
<path d="M19.2834 13.6654C19.0662 13.6654 18.8896 13.4891 18.8896 13.2716V12.6025C18.8896 12.3853 19.0659 12.2087 19.2834 12.2087C19.5006 12.2087 19.6771 12.385 19.6771 12.6025V13.2716C19.6771 13.4891 19.5006 13.6654 19.2834 13.6654Z" fill="#103E13"/>
<path d="M17.6281 13.6654C17.4109 13.6654 17.2344 13.4891 17.2344 13.2716V12.6025C17.2344 12.3853 17.4107 12.2087 17.6281 12.2087C17.8453 12.2087 18.0219 12.385 18.0219 12.6025V13.2716C18.0216 13.4891 17.8456 13.6654 17.6281 13.6654Z" fill="#103E13"/>
<path d="M15.9729 13.6654C15.7557 13.6654 15.5791 13.4891 15.5791 13.2716V12.6025C15.5791 12.3853 15.7554 12.2087 15.9729 12.2087C16.19 12.2087 16.3666 12.385 16.3666 12.6025V13.2716C16.3666 13.4891 16.1903 13.6654 15.9729 13.6654Z" fill="#103E13"/>
<path d="M19.2834 16.4019C19.0662 16.4019 18.8896 16.2256 18.8896 16.0082V15.3393C18.8896 15.1221 19.0659 14.9456 19.2834 14.9456C19.5006 14.9456 19.6771 15.1218 19.6771 15.3393V16.0082C19.6771 16.2256 19.5006 16.4019 19.2834 16.4019Z" fill="#103E13"/>
<path d="M17.6281 16.4019C17.4109 16.4019 17.2344 16.2256 17.2344 16.0082V15.3393C17.2344 15.1221 17.4107 14.9456 17.6281 14.9456C17.8453 14.9456 18.0219 15.1218 18.0219 15.3393V16.0082C18.0216 16.2256 17.8456 16.4019 17.6281 16.4019Z" fill="#103E13"/>
<path d="M15.9729 16.4019C15.7557 16.4019 15.5791 16.2256 15.5791 16.0082V15.3393C15.5791 15.1221 15.7554 14.9456 15.9729 14.9456C16.19 14.9456 16.3666 15.1218 16.3666 15.3393V16.0082C16.3666 16.2256 16.1903 16.4019 15.9729 16.4019Z" fill="#103E13"/>
<path d="M19.2834 19.1383C19.0662 19.1383 18.8896 18.962 18.8896 18.7445V18.0754C18.8896 17.8582 19.0659 17.6816 19.2834 17.6816C19.5006 17.6816 19.6771 17.8579 19.6771 18.0754V18.7445C19.6771 18.962 19.5006 19.1383 19.2834 19.1383Z" fill="#103E13"/>
<path d="M17.6281 19.1383C17.4109 19.1383 17.2344 18.962 17.2344 18.7445V18.0754C17.2344 17.8582 17.4107 17.6816 17.6281 17.6816C17.8453 17.6816 18.0219 17.8579 18.0219 18.0754V18.7445C18.0216 18.962 17.8456 19.1383 17.6281 19.1383Z" fill="#103E13"/>
<path d="M15.9729 19.1383C15.7557 19.1383 15.5791 18.962 15.5791 18.7445V18.0754C15.5791 17.8582 15.7554 17.6816 15.9729 17.6816C16.19 17.6816 16.3666 17.8579 16.3666 18.0754V18.7445C16.3666 18.962 16.1903 19.1383 15.9729 19.1383Z" fill="#103E13"/>
<path d="M19.2834 21.8741C19.0662 21.8741 18.8896 21.6978 18.8896 21.4804V20.8112C18.8896 20.594 19.0659 20.4175 19.2834 20.4175C19.5006 20.4175 19.6771 20.5938 19.6771 20.8112V21.4804C19.6771 21.6978 19.5006 21.8741 19.2834 21.8741Z" fill="#103E13"/>
<path d="M17.6281 21.8741C17.4109 21.8741 17.2344 21.6978 17.2344 21.4804V20.8112C17.2344 20.594 17.4107 20.4175 17.6281 20.4175C17.8453 20.4175 18.0219 20.5938 18.0219 20.8112V21.4804C18.0216 21.6978 17.8456 21.8741 17.6281 21.8741Z" fill="#103E13"/>
<path d="M15.9729 21.8741C15.7557 21.8741 15.5791 21.6978 15.5791 21.4804V20.8112C15.5791 20.594 15.7554 20.4175 15.9729 20.4175C16.19 20.4175 16.3666 20.5938 16.3666 20.8112V21.4804C16.3666 21.6978 16.1903 21.8741 15.9729 21.8741Z" fill="#103E13"/>
<path d="M19.2834 24.6107C19.0662 24.6107 18.8896 24.4344 18.8896 24.2169V23.548C18.8896 23.3309 19.0659 23.1543 19.2834 23.1543C19.5006 23.1543 19.6771 23.3306 19.6771 23.548V24.2169C19.6771 24.4341 19.5006 24.6107 19.2834 24.6107Z" fill="#103E13"/>
<path d="M17.6281 24.6107C17.4109 24.6107 17.2344 24.4344 17.2344 24.2169V23.548C17.2344 23.3309 17.4107 23.1543 17.6281 23.1543C17.8453 23.1543 18.0219 23.3306 18.0219 23.548V24.2169C18.0216 24.4341 17.8456 24.6107 17.6281 24.6107Z" fill="#103E13"/>
<path d="M15.9729 24.6107C15.7557 24.6107 15.5791 24.4344 15.5791 24.2169L15.5794 23.548C15.5794 23.3309 15.7557 23.1543 15.9731 23.1543C16.1903 23.1543 16.3669 23.3306 16.3669 23.548V24.2169C16.3666 24.4341 16.1903 24.6107 15.9729 24.6107Z" fill="#103E13"/>
<path d="M4.72445 27.3337C4.72445 27.5509 4.90073 27.7275 5.1182 27.7275H29.0962C29.3134 27.7275 29.49 27.5512 29.49 27.3337C29.49 27.1165 29.3137 26.94 29.0962 26.94H28.3684V15.6349C28.3684 15.4177 28.1921 15.2412 27.9746 15.2412L21.5459 15.2414V7.09108C21.5459 6.95324 21.474 6.82584 21.3564 6.75444C21.2392 6.68278 21.0926 6.67838 20.9707 6.74181L13.6617 10.5472C13.5313 10.615 13.45 10.7496 13.45 10.8965V18.0157H6.3765C6.15932 18.0157 5.98276 18.1919 5.98276 18.4094V26.9401H5.11732C4.90013 26.9398 4.72412 27.1161 4.72412 27.3335L4.72445 27.3337ZM21.546 21.2049H27.5813V26.9403L21.546 26.94V21.2049ZM21.546 18.4687H27.5813V20.4177L21.546 20.4174V18.4687ZM21.546 16.0285H27.5813V17.6818H21.546V16.0285ZM14.2371 11.1356L20.7583 7.7401V26.9397H14.2371V11.1356ZM8.71669 23.7952C8.71669 22.978 9.36414 22.313 10.1601 22.313C10.9561 22.313 11.6039 22.9777 11.6039 23.7952V26.9402H8.71669V23.7952ZM6.77023 18.803H13.4499V26.94H12.3913V23.795C12.3913 22.5438 11.3908 21.5256 10.1601 21.5256C8.93003 21.5256 7.92949 22.5435 7.92949 23.795V26.94H6.77023V18.803Z" fill="#103E13"/>
</svg>
