<svg width="35" height="34" viewBox="0 0 35 34" fill="none" xmlns="http://www.w3.org/2000/svg">
<path d="M4.43695 11.4802V11.8282H4.78499H29.8435H30.1915V11.4802V9.91405C30.1915 9.12946 29.8798 8.377 29.3251 7.82221C28.7703 7.26743 28.0178 6.95575 27.2332 6.95575H7.39525C6.61066 6.95575 5.8582 7.26743 5.30342 7.82221C4.74863 8.377 4.43695 9.12946 4.43695 9.91405V11.4802ZM30.1915 13.5684V13.2204H29.8435H4.78499H4.43695V13.5684V23.4874C4.43695 24.272 4.74863 25.0244 5.30342 25.5792C5.8582 26.134 6.61066 26.4457 7.39525 26.4457H27.2332C28.0178 26.4457 28.7703 26.134 29.3251 25.5792C29.8798 25.0244 30.1915 24.272 30.1915 23.4874V13.5684ZM3.04481 9.91405C3.04481 8.76024 3.50316 7.65369 4.31902 6.83782C5.13489 6.02196 6.24144 5.56361 7.39525 5.56361H27.2332C28.387 5.56361 29.4936 6.02196 30.3094 6.83782C31.1253 7.65369 31.5837 8.76024 31.5837 9.91405V23.4874C31.5837 24.6412 31.1253 25.7478 30.3094 26.5636C29.4936 27.3795 28.387 27.8378 27.2332 27.8378H7.39525C6.24144 27.8378 5.13489 27.3795 4.31902 26.5636C3.50316 25.7478 3.04481 24.6412 3.04481 23.4874V9.91405ZM22.5348 20.1811H25.6671C25.8517 20.1811 26.0287 20.2544 26.1593 20.3849C26.2898 20.5155 26.3631 20.6925 26.3631 20.8771C26.3631 21.0617 26.2898 21.2388 26.1593 21.3693C26.0287 21.4999 25.8517 21.5732 25.6671 21.5732H22.5348C22.3501 21.5732 22.1731 21.4999 22.0426 21.3693C21.912 21.2388 21.8387 21.0617 21.8387 20.8771C21.8387 20.6925 21.912 20.5155 22.0426 20.3849C22.1731 20.2544 22.3501 20.1811 22.5348 20.1811Z" fill="#4CAF4F" stroke="#4CAF4F" stroke-width="0.696069"/>
</svg>
