<svg width="34" height="34" viewBox="0 0 34 34" fill="none" xmlns="http://www.w3.org/2000/svg">
<path d="M20.1288 16.8909C19.9612 16.8909 19.8055 16.8448 19.6673 16.7707V16.7727C19.6673 17.0364 19.5648 17.284 19.3788 17.4695C19.1929 17.6555 18.9454 17.7579 18.682 17.7579C18.512 17.7579 18.3544 17.7107 18.2146 17.6346C18.2005 17.8759 18.1041 18.1013 17.9321 18.2735C17.7461 18.4595 17.4986 18.562 17.2351 18.562C16.7114 18.562 16.2862 18.1504 16.2556 17.6345C16.0935 17.722 15.9103 17.768 15.7214 17.7558C15.2063 17.722 14.8029 17.277 14.8029 16.7423V12.3107L14.2983 13.1849C14.1061 13.5193 13.7463 13.7269 13.3589 13.7269C13.1702 13.7269 12.9837 13.6774 12.8186 13.5828C12.6129 13.4635 12.4658 13.2722 12.4046 13.0432C12.3432 12.8141 12.375 12.5745 12.4939 12.3692C12.494 12.3692 14.1449 9.5103 14.2456 9.33469C14.2576 9.30828 14.2917 9.2317 14.3208 9.16643C14.3485 9.10411 14.3723 9.04016 14.395 8.97587C14.8929 7.57031 16.1257 6.69721 17.6124 6.69721C19.5431 6.69721 21.1138 8.40042 21.1138 10.494L21.114 15.9055C21.114 16.1688 21.0116 16.4163 20.8258 16.6025C20.6399 16.7884 20.3924 16.8909 20.1287 16.8909L20.1288 16.8909ZM17.6124 7.22075C16.3349 7.22075 15.3167 7.94234 14.8885 9.15096C14.8611 9.22771 14.8326 9.30446 14.7993 9.37924C14.7027 9.59588 14.7027 9.59587 14.6755 9.62703L14.6719 9.62391C14.5371 9.87827 14.1366 10.5718 12.9472 12.6312C12.8983 12.7157 12.8853 12.8137 12.9103 12.9075C12.9355 13.0013 12.996 13.0804 13.0798 13.1288C13.3399 13.2782 13.6961 13.1817 13.8444 12.9234L14.838 11.2031C14.8974 11.1007 15.0174 11.0503 15.1325 11.0815C15.247 11.1121 15.3265 11.2159 15.3265 11.3343V16.7425C15.3265 16.9976 15.5191 17.2179 15.7557 17.2335C15.8922 17.2407 16.0194 17.1949 16.115 17.0995C16.202 17.0126 16.2498 16.8968 16.2498 16.773V13.236C16.2498 13.0913 16.3671 12.9741 16.5117 12.9741C16.6564 12.9741 16.7736 13.0912 16.7736 13.236L16.7735 17.5769C16.7735 17.8314 16.9806 18.0386 17.2351 18.0386C17.3588 18.0386 17.4749 17.9907 17.5619 17.9038C17.6489 17.8167 17.6967 17.7006 17.6967 17.5769V13.236C17.6967 13.0913 17.8138 12.9741 17.9586 12.9741C18.1033 12.9741 18.2205 13.0912 18.2205 13.236L18.2204 16.7323V16.773C18.2204 17.0273 18.4275 17.2344 18.6822 17.2344C18.8057 17.2344 18.9214 17.1864 19.009 17.0991C19.0959 17.0124 19.1438 16.8966 19.1438 16.7728V13.2358C19.1438 13.0911 19.2609 12.9739 19.4057 12.9739C19.5504 12.9739 19.6676 13.091 19.6676 13.2358L19.6673 15.9056C19.6673 16.1603 19.8744 16.3674 20.1287 16.3674C20.2526 16.3674 20.3683 16.3194 20.4553 16.2326C20.5425 16.1454 20.5902 16.0292 20.5902 15.9056L20.5904 10.4941C20.5904 8.68938 19.2545 7.22081 17.6124 7.22081L17.6124 7.22075Z" fill="#103E13"/>
<path d="M9.83908 20.6521L13.6394 18.3722C14.0976 18.0971 14.6872 18.214 14.981 18.6386C15.0883 18.7932 15.1431 18.9734 15.1516 19.157C15.2933 19.083 15.4474 19.0428 15.6044 19.0428C15.6847 19.0428 15.7654 19.0528 15.8451 19.0727C16.1004 19.1365 16.3156 19.296 16.4509 19.5217C16.5864 19.7476 16.6259 20.0125 16.5621 20.2675C16.5032 20.5035 16.3597 20.7021 16.1602 20.8384C16.2997 20.9207 16.4201 21.033 16.5057 21.176C16.6411 21.402 16.6807 21.6667 16.617 21.9221C16.5532 22.1771 16.3937 22.3922 16.1677 22.5279L16.1664 22.5287C16.3035 22.6108 16.4217 22.722 16.5063 22.8629C16.642 23.0889 16.6815 23.3537 16.6177 23.6091C16.5537 23.8642 16.3942 24.0794 16.1685 24.2149L11.5283 26.9986C10.6622 27.518 9.66102 27.6973 8.70953 27.5029C7.74953 27.3068 6.95447 26.755 6.47105 25.9491C5.70601 24.6741 5.82066 23.1676 6.76968 22.0178C6.81314 21.9654 6.85594 21.9119 6.89481 21.8565C6.93597 21.7979 6.98402 21.7291 7.00042 21.7054C7.09865 21.53 8.70153 18.642 8.70136 18.6424C8.86323 18.3503 9.16661 18.185 9.4795 18.1852C9.62546 18.1852 9.77354 18.2211 9.91015 18.2968C10.0751 18.389 10.2137 18.5233 10.3106 18.6852C10.5099 19.0173 10.5169 19.4328 10.3293 19.7691L9.83908 20.6521ZM9.86187 18.9544C9.81104 18.8696 9.74117 18.802 9.65573 18.7542C9.47911 18.6564 9.25674 18.7201 9.1595 18.896C8.01255 20.9623 7.62157 21.6665 7.47069 21.9171L7.47413 21.9179C7.46151 21.9599 7.46151 21.9599 7.32343 22.1572C7.27652 22.2239 7.22552 22.288 7.17354 22.3512C6.35749 23.3399 6.26274 24.5841 6.91984 25.6797C7.32687 26.3583 7.99958 26.8236 8.81411 26.9899C9.63751 27.1573 10.5054 27.0015 11.2586 26.5496L15.8993 23.7656C16.0052 23.7022 16.08 23.6013 16.1099 23.4818C16.1397 23.3624 16.1212 23.2382 16.0576 23.1323C15.9267 22.9142 15.6425 22.8425 15.4244 22.9739L13.1351 24.3473C13.0111 24.4218 12.85 24.3818 12.7757 24.2576C12.7013 24.1336 12.7415 23.9728 12.8654 23.8983L15.1549 22.5249L15.8985 22.0788C16.0044 22.0152 16.0794 21.9143 16.1092 21.7951C16.1391 21.6756 16.1205 21.5513 16.0569 21.4455C15.9259 21.2272 15.6417 21.1562 15.4237 21.2871L12.3907 23.1066C12.2664 23.1812 12.1058 23.1408 12.0314 23.0169C11.9569 22.8929 11.9973 22.732 12.1211 22.6576L15.8436 20.4245C15.9495 20.3609 16.0243 20.2602 16.0541 20.1406C16.084 20.0212 16.0654 19.8971 16.002 19.7911C15.9385 19.6854 15.8376 19.6106 15.7181 19.5807C15.5979 19.5509 15.4742 19.5694 15.3686 19.6327L14.6795 20.0462C14.6794 20.0462 14.6794 20.0463 14.6792 20.0463H14.679L11.6462 21.8658C11.5219 21.9406 11.3612 21.9003 11.2869 21.7761C11.2124 21.6521 11.2528 21.4913 11.3766 21.4168L14.4096 19.5973C14.5155 19.5337 14.5905 19.4328 14.6203 19.3136C14.6531 19.1827 14.6282 19.0489 14.5505 18.9368C14.4157 18.7418 14.1274 18.6899 13.9088 18.8213L9.27144 21.6033C9.16993 21.664 9.03988 21.6492 8.95477 21.567C8.8695 21.4847 8.85031 21.3553 8.9077 21.2518L9.87199 19.5145C9.96875 19.3408 9.96497 19.1263 9.86182 18.9545L9.86187 18.9544Z" fill="#103E13"/>
<path d="M27.999 25.949C27.5157 26.755 26.7209 27.3067 25.7607 27.5028C24.809 27.6968 23.8082 27.5179 22.942 26.9985L18.3013 24.2146C18.0755 24.0792 17.9157 23.864 17.8518 23.6085C17.7883 23.3535 17.828 23.0886 17.9633 22.863C18.0477 22.7219 18.1661 22.6107 18.3034 22.5286L18.3021 22.5278C18.0763 22.3923 17.9166 22.1772 17.8529 21.922C17.789 21.6668 17.8287 21.4018 17.9641 21.1758C18.0514 21.0307 18.1709 20.9172 18.3074 20.8367C18.1092 20.7004 17.9666 20.5025 17.9079 20.2676C17.8439 20.0123 17.8836 19.7474 18.0191 19.5218C18.1544 19.2959 18.3697 19.1364 18.6249 19.0726C18.7046 19.0526 18.7854 19.0427 18.8654 19.0427C19.0225 19.0429 19.1767 19.0828 19.3184 19.1569C19.3271 18.9734 19.3817 18.7932 19.4889 18.6385C19.783 18.2143 20.372 18.0968 20.8309 18.3722L24.6311 20.6517L24.1413 19.7694C23.9533 19.4325 23.9602 19.017 24.1595 18.6847C24.2565 18.523 24.3953 18.3887 24.5611 18.2957C24.6974 18.2203 24.8449 18.1846 24.9906 18.1846C25.3033 18.1847 25.607 18.3497 25.7687 18.6418C26.3322 19.6571 27.3955 21.5718 27.4703 21.7055C27.4862 21.7286 27.5342 21.7975 27.5754 21.856C27.6146 21.9116 27.6569 21.9648 27.7007 22.0176C28.6496 23.1678 28.764 24.6741 27.999 25.949L27.999 25.949ZM27.2966 22.3513C27.2445 22.2882 27.1933 22.2237 27.1468 22.1573C27.0051 21.9563 27.0015 21.951 26.9908 21.8984C26.8252 21.6244 26.4211 20.8969 25.3104 18.8958C25.213 18.7202 24.9916 18.6561 24.8153 18.7535C24.7285 18.802 24.6588 18.8697 24.608 18.9545C24.505 19.1262 24.5011 19.3407 24.5983 19.5149L25.5623 21.2518C25.6198 21.3554 25.6007 21.4846 25.5155 21.5669C25.4306 21.6494 25.3007 21.6639 25.1987 21.6032L20.5614 18.8212C20.3428 18.6902 20.0546 18.7415 19.9195 18.9367C19.8418 19.0488 19.817 19.1826 19.8495 19.3133C19.8793 19.4327 19.9543 19.5334 20.0604 19.5971C20.0607 19.5972 20.0609 19.5975 20.0612 19.5977L23.0933 21.4167C23.2172 21.4912 23.2574 21.6519 23.183 21.776C23.1085 21.8998 22.948 21.9403 22.8237 21.8657L19.1012 19.6327C18.9956 19.5694 18.8713 19.5507 18.7519 19.5807C18.6322 19.6105 18.5315 19.6853 18.468 19.7914C18.4044 19.8972 18.386 20.0213 18.4155 20.1407C18.4454 20.2601 18.5203 20.3609 18.6263 20.4246L19.3506 20.859L22.3486 22.6577C22.4725 22.7321 22.5127 22.8928 22.4383 23.017C22.3638 23.1408 22.2033 23.1811 22.079 23.1067L19.0463 21.2872C18.8282 21.156 18.5441 21.2272 18.4129 21.4456C18.3493 21.5515 18.3309 21.6757 18.3604 21.7951C18.3903 21.9145 18.4652 22.0151 18.5713 22.0789L19.3149 22.525L21.604 23.8984C21.728 23.9729 21.7682 24.1336 21.6937 24.2577C21.6193 24.3816 21.4587 24.4222 21.3344 24.3475L19.0453 22.974C18.9397 22.9107 18.8159 22.892 18.6958 22.922C18.5764 22.9519 18.4754 23.0266 18.4119 23.1324C18.3485 23.2384 18.3299 23.3627 18.3595 23.4819C18.3893 23.6013 18.4643 23.702 18.5704 23.7658L23.2111 26.5497C23.9641 27.0015 24.8326 27.1579 25.6555 26.99C26.4699 26.8237 27.1426 26.3584 27.5496 25.6799C28.2074 24.584 28.1128 23.3397 27.2969 22.3513L27.2966 22.3513Z" fill="#103E13"/>
</svg>
