<svg width="34" height="34" viewBox="0 0 34 34" fill="none" xmlns="http://www.w3.org/2000/svg">
<path d="M28.0711 29.2301V26.4459C28.0711 24.969 27.4844 23.5526 26.4401 22.5083C25.3958 21.464 23.9794 20.8773 22.5025 20.8773H21.1104C20.7412 20.8773 20.3871 20.7306 20.126 20.4695C19.8649 20.2085 19.7183 19.8544 19.7183 19.4852V12.5245C19.7183 11.786 19.4249 11.0778 18.9028 10.5557C18.3806 10.0335 17.6724 9.74019 16.934 9.74019C16.1955 9.74019 15.4874 10.0335 14.9652 10.5557C14.4431 11.0778 14.1497 11.786 14.1497 12.5245V25.0537L10.8086 20.5989C10.5492 20.2531 10.2129 19.9724 9.82632 19.7791C9.43971 19.5858 9.0134 19.4852 8.58115 19.4852H7.97696C6.77276 19.4852 5.79688 20.461 5.79688 21.6652C5.79688 22.0606 5.90407 22.449 6.10732 22.7873L9.97329 29.2301M16.934 5.56377V4.17163V5.56377ZM25.2868 13.9166H26.679H25.2868ZM7.18901 13.9166H8.58115H7.18901ZM10.4508 7.43341L9.46655 6.44917L10.4508 7.43341ZM23.4172 7.43341L24.4014 6.44917L23.4172 7.43341Z" fill="#4CAF4F"/>
<path d="M28.0711 29.2301V26.4459C28.0711 24.969 27.4844 23.5526 26.4401 22.5083C25.3958 21.464 23.9794 20.8773 22.5025 20.8773H21.1104C20.7412 20.8773 20.3871 20.7306 20.126 20.4696C19.8649 20.2085 19.7183 19.8544 19.7183 19.4852V12.5245C19.7183 11.786 19.4249 11.0778 18.9028 10.5557C18.3806 10.0335 17.6724 9.74019 16.934 9.74019V9.74019C16.1956 9.74019 15.4874 10.0335 14.9652 10.5557C14.4431 11.0778 14.1497 11.786 14.1497 12.5245V25.0537L10.8086 20.5989C10.5492 20.2531 10.2129 19.9724 9.82632 19.7791C9.43971 19.5858 9.0134 19.4852 8.58115 19.4852H7.97696C6.77276 19.4852 5.79688 20.461 5.79688 21.6652C5.79688 22.0606 5.90407 22.449 6.10732 22.7873L9.97329 29.2301M16.934 5.56377V4.17163M25.2868 13.9166H26.679M7.18901 13.9166H8.58115M10.4508 7.43341L9.46655 6.44917M23.4172 7.43341L24.4014 6.44917" stroke="#4CAF4F" stroke-width="1.39214" stroke-linecap="round" stroke-linejoin="round"/>
</svg>
