<svg width="34" height="34" viewBox="0 0 34 34" fill="none" xmlns="http://www.w3.org/2000/svg">
<g clip-path="url(#clip0_211_2332)">
<path d="M32.4498 26.9085L32.4499 26.9085C32.5811 26.8175 32.693 26.7013 32.7789 26.5667L33.0722 26.754L32.7789 26.5667C32.8649 26.4321 32.9232 26.2818 32.9505 26.1244C32.9778 25.967 32.9736 25.8058 32.9381 25.6501L33.2774 25.5727L32.9381 25.6501C32.9025 25.4944 32.8364 25.3473 32.7435 25.2174L32.742 25.2152C31.4349 23.3573 29.654 21.8834 27.5843 20.9468L27.0796 20.7184L27.5044 20.3628C28.7642 19.3084 29.6684 17.8912 30.0939 16.3044C30.5195 14.7176 30.4456 13.0382 29.8824 11.4949C29.3192 9.95157 28.294 8.61932 26.9465 7.67953C25.599 6.73973 23.9946 6.23807 22.3517 6.24284L22.3501 6.24285C21.619 6.24163 20.8913 6.34258 20.1881 6.54278L20.1819 6.54455L20.1818 6.5445C20.0257 6.58583 19.8792 6.65782 19.7512 6.75627C19.6231 6.85473 19.5158 6.97769 19.4357 7.11798C19.3556 7.25828 19.3042 7.41312 19.2844 7.57347C19.2647 7.73383 19.2771 7.89651 19.3209 8.05203C19.3646 8.20755 19.4389 8.35282 19.5394 8.47937L19.2667 8.69573L19.5394 8.47937C19.6398 8.60592 19.7644 8.71122 19.9059 8.78914L19.7381 9.09402L19.9059 8.78914C20.0475 8.86707 20.2031 8.91606 20.3637 8.93327C20.5244 8.95048 20.6868 8.93556 20.8417 8.88938L20.8457 8.88819L20.8457 8.88821C21.3353 8.74852 21.8421 8.67813 22.3513 8.67909M32.4498 26.9085L22.3507 9.02712M32.4498 26.9085L32.4458 26.9114C32.2426 27.0566 31.999 27.1343 31.7492 27.1336C31.5539 27.1324 31.3617 27.0848 31.1884 26.9946C31.0152 26.9045 30.8659 26.7745 30.7529 26.6153M32.4498 26.9085L30.4686 26.816M22.3513 8.67909L22.3507 9.02712M22.3513 8.67909C22.3511 8.67909 22.3509 8.67909 22.3507 8.67909V9.02712M22.3513 8.67909C23.828 8.67926 25.2441 9.26593 26.2882 10.3101C27.3326 11.3544 27.9192 12.7708 27.9192 14.2476C27.9192 15.7245 27.3326 17.1409 26.2882 18.1852C25.2439 19.2295 23.8276 19.8162 22.3507 19.8162C22.0276 19.8162 21.7178 19.9445 21.4893 20.173C21.2609 20.4014 21.1326 20.7113 21.1326 21.0343C21.1326 21.3574 21.2609 21.6672 21.4893 21.8957C21.7178 22.1241 22.0276 22.2524 22.3507 22.2524H22.3511C23.9985 22.2543 25.6214 22.6515 27.0835 23.4107C28.5454 24.1699 29.8038 25.2688 30.7529 26.6153M22.3507 9.02712C23.7353 9.02712 25.0631 9.57714 26.0421 10.5562C27.0212 11.5352 27.5712 12.8631 27.5712 14.2476C27.5712 15.6322 27.0212 16.9601 26.0421 17.9391C25.0631 18.9181 23.7353 19.4682 22.3507 19.4682C21.9353 19.4682 21.537 19.6332 21.2432 19.9269C20.9495 20.2206 20.7845 20.619 20.7845 21.0343C20.7845 21.4497 20.9495 21.848 21.2432 22.1418C21.537 22.4355 21.9353 22.6005 22.3507 22.6005C23.9424 22.6022 25.5105 22.986 26.9231 23.7196C28.3357 24.4531 29.5516 25.515 30.4686 26.816M30.7529 26.6153C30.7527 26.6151 30.7526 26.6149 30.7525 26.6147L30.4686 26.816M30.7529 26.6153C30.7529 26.6154 30.753 26.6154 30.7531 26.6155L30.4686 26.816M16.867 20.3634L16.4442 20.719L16.9475 20.9468C19.0171 21.8834 20.7981 23.3573 22.1052 25.2152L22.1102 25.2223L22.1155 25.2291C22.217 25.3592 22.2911 25.5086 22.3331 25.6681C22.3752 25.8277 22.3844 25.9942 22.3602 26.1574C22.336 26.3206 22.2788 26.4772 22.1923 26.6177C22.1057 26.7582 21.9915 26.8796 21.8565 26.9747C21.7216 27.0697 21.5688 27.1363 21.4073 27.1704C21.2459 27.2045 21.0792 27.2055 20.9173 27.1733C20.7555 27.1411 20.6019 27.0763 20.4658 26.9829C20.3298 26.8895 20.2141 26.7694 20.1259 26.63L20.1214 26.6229L20.1166 26.6161C19.1695 25.267 17.9114 24.1659 16.4489 23.4057C14.9863 22.6455 13.3622 22.2487 11.7139 22.2487C10.0655 22.2487 8.44145 22.6455 6.97888 23.4057C5.51632 24.1659 4.25828 25.267 3.31112 26.6161L3.31034 26.6172C3.199 26.7771 3.05054 26.9076 2.8777 26.9975C2.70485 27.0875 2.51278 27.1342 2.31793 27.1336L2.3158 27.1336C2.0659 27.1344 1.82207 27.0567 1.61877 26.9114L1.6171 26.9102C1.35358 26.7242 1.17461 26.4413 1.11942 26.1235C1.06425 25.8058 1.1373 25.4791 1.32255 25.2152C2.62965 23.3573 4.4106 21.8834 6.48022 20.9468L6.98353 20.719L6.56078 20.3634C5.30435 19.3064 4.40333 17.8887 3.97988 16.3023C3.55642 14.716 3.63101 13.0378 4.19354 11.4953C4.75607 9.9528 5.77932 8.62058 7.12456 7.67925C8.46981 6.73793 10.072 6.23304 11.7139 6.23304C13.3558 6.23304 14.9579 6.73793 16.3032 7.67925C17.6484 8.62058 18.6717 9.9528 19.2342 11.4953C19.7967 13.0378 19.8713 14.716 19.4479 16.3023C19.0244 17.8887 18.1234 19.3064 16.867 20.3634ZM7.08378 11.1539C6.4719 12.0697 6.14531 13.1463 6.14531 14.2476C6.14531 15.7245 6.732 17.1409 7.7763 18.1852C8.82061 19.2295 10.237 19.8162 11.7139 19.8162C12.8152 19.8162 13.8918 19.4896 14.8076 18.8777C15.7233 18.2658 16.4371 17.3962 16.8585 16.3786C17.28 15.3611 17.3903 14.2415 17.1754 13.1613C16.9606 12.0811 16.4302 11.0889 15.6514 10.3101C14.8727 9.5313 13.8804 9.00095 12.8002 8.78609C11.72 8.57122 10.6004 8.6815 9.58287 9.10297C8.56535 9.52444 7.69566 10.2382 7.08378 11.1539Z" fill="#4CAF4F" stroke="#4CAF4F" stroke-width="0.696069"/>
</g>
<defs>
<clipPath id="clip0_211_2332">
<rect width="33.4113" height="33.4113" fill="white" transform="translate(0.228516 0.152344)"/>
</clipPath>
</defs>
</svg>
