<svg width="34" height="34" viewBox="0 0 34 34" fill="none" xmlns="http://www.w3.org/2000/svg">
<g clip-path="url(#clip0_211_2049)">
<path fill-rule="evenodd" clip-rule="evenodd" d="M10.0455 10.0833L3.09473 16.9642C4.48501 18.3405 6.0732 19.5005 7.80478 20.4079C8.2834 21.6648 9.03361 22.8434 10.0554 23.8549C13.8997 27.6606 20.1326 27.6606 23.9768 23.8549C24.9986 22.8434 25.7489 21.6648 26.2275 20.4079C27.959 19.5005 29.5472 18.3405 30.9375 16.9642L23.9923 10.0889C23.9872 10.0838 23.982 10.0786 23.9768 10.0735C20.1326 6.26783 13.8997 6.26783 10.0554 10.0735C10.0521 10.0767 10.0488 10.08 10.0455 10.0833ZM23.3117 21.6494C21.2862 22.3261 19.1598 22.6727 17.0161 22.6727C14.8724 22.6727 12.7461 22.3261 10.7206 21.6494C10.9401 21.9376 11.1824 22.2142 11.4476 22.4768C14.523 25.5213 19.5092 25.5213 22.5847 22.4768C22.8499 22.2142 23.0922 21.9376 23.3117 21.6494ZM11.5903 11.3138C12.1126 11.6554 12.6679 11.9476 13.249 12.1859C14.4433 12.6757 15.7234 12.9277 17.0161 12.9277C18.3089 12.9277 19.5889 12.6757 20.7832 12.1859C21.3643 11.9476 21.9196 11.6554 22.442 11.3138C19.4049 8.45304 14.6273 8.45305 11.5903 11.3138Z" fill="#3B4158"/>
</g>
<defs>
<clipPath id="clip0_211_2049">
<rect width="27.8428" height="19.4899" fill="white" transform="translate(3.09473 7.21924)"/>
</clipPath>
</defs>
</svg>
