<svg width="52" height="9" viewBox="0 0 52 9" fill="none" xmlns="http://www.w3.org/2000/svg">
<path d="M6.34895 4.89441L4.5491 7.97696L2.74926 4.89441H6.34895ZM6.83112 4.6189H2.26514L4.5491 8.5222L6.83112 4.6189Z" fill="#263238"/>
<path d="M9.47807 1.06053L11.2779 4.14308H7.67821L9.47807 1.06053ZM9.47807 0.509521L7.19409 4.41281H11.762L9.47807 0.509521Z" fill="#263238"/>
<path d="M0.0766602 0.509521L1.99169 3.96199L4.08434 0.596214L0.0766602 0.509521Z" fill="#4CAF4F"/>
<path d="M4.549 0.812012L6.55773 4.24521H2.53638L4.549 0.812012Z" fill="#4CAF4F"/>
<path d="M7.07508 4.99463L9.08576 8.52225H4.96875L7.01261 4.99463H7.07508Z" fill="#4CAF4F"/>
<path d="M7.5105 4.78076L9.47822 8.25442L11.4733 4.78076H7.5105Z" fill="#4CAF4F"/>
<path d="M20.1197 1.06665V7.86539H18.8782L15.9203 3.5863H15.8705V7.86539H14.4331V1.06665H15.6946L18.6292 5.34242H18.689V1.06665H20.1197Z" fill="#263238"/>
<path d="M23.6046 7.96498C23.0801 7.96498 22.6286 7.85875 22.2502 7.64629C21.8739 7.43161 21.584 7.12842 21.3804 6.73669C21.1768 6.34275 21.075 5.87689 21.075 5.3391C21.075 4.81459 21.1768 4.35426 21.3804 3.95811C21.584 3.56196 21.8706 3.25322 22.2402 3.03191C22.612 2.8106 23.048 2.69994 23.5482 2.69994C23.8846 2.69994 24.1977 2.75416 24.4876 2.86261C24.7798 2.96884 25.0343 3.12929 25.2512 3.34396C25.4703 3.55864 25.6407 3.82864 25.7624 4.15397C25.8841 4.47708 25.945 4.85553 25.945 5.2893V5.67771H21.6393V4.80131H24.6138C24.6138 4.5977 24.5695 4.41733 24.481 4.2602C24.3925 4.10307 24.2696 3.98024 24.1125 3.89171C23.9576 3.80097 23.7772 3.7556 23.5714 3.7556C23.3567 3.7556 23.1664 3.8054 23.0004 3.90499C22.8366 4.00237 22.7083 4.13405 22.6153 4.30003C22.5224 4.46381 22.4748 4.64639 22.4726 4.84778V5.68103C22.4726 5.93332 22.5191 6.15132 22.612 6.33501C22.7072 6.5187 22.8411 6.66034 23.0137 6.75993C23.1863 6.85952 23.391 6.90931 23.6278 6.90931C23.785 6.90931 23.9288 6.88718 24.0594 6.84292C24.19 6.79866 24.3017 6.73226 24.3947 6.64374C24.4876 6.55521 24.5585 6.44677 24.6071 6.31841L25.9151 6.40472C25.8487 6.71899 25.7126 6.99341 25.5068 7.22801C25.3032 7.46039 25.0398 7.64186 24.7167 7.77244C24.3958 7.9008 24.0251 7.96498 23.6046 7.96498Z" fill="#263238"/>
<path d="M27.9584 2.76633L28.8945 4.54901L29.8539 2.76633H31.3046L29.8274 5.31586L31.3445 7.86539H29.9004L28.8945 6.10263L27.9053 7.86539H26.4446L27.9584 5.31586L26.4977 2.76633H27.9584Z" fill="#263238"/>
<path d="M34.2658 7.96498C33.7435 7.96498 33.2942 7.85432 32.918 7.63301C32.544 7.40948 32.2563 7.09964 32.0549 6.70349C31.8557 6.30734 31.7561 5.85144 31.7561 5.33578C31.7561 4.81348 31.8568 4.35536 32.0582 3.96143C32.2618 3.56527 32.5506 3.25654 32.9246 3.03523C33.2987 2.8117 33.7435 2.69994 34.2592 2.69994C34.704 2.69994 35.0935 2.78072 35.4277 2.94228C35.7619 3.10384 36.0263 3.33068 36.2211 3.62282C36.4159 3.91495 36.5232 4.25798 36.5431 4.65192H35.2086C35.171 4.39741 35.0714 4.1927 34.9098 4.03778C34.7505 3.88065 34.5413 3.80208 34.2824 3.80208C34.0633 3.80208 33.8719 3.86183 33.7081 3.98134C33.5465 4.09864 33.4204 4.27016 33.3296 4.4959C33.2389 4.72164 33.1935 4.99496 33.1935 5.31586C33.1935 5.64119 33.2378 5.91783 33.3263 6.14579C33.4171 6.37374 33.5443 6.54747 33.7081 6.66698C33.8719 6.78649 34.0633 6.84624 34.2824 6.84624C34.444 6.84624 34.5889 6.81304 34.7173 6.74665C34.8479 6.68026 34.9552 6.58398 35.0393 6.45784C35.1256 6.32947 35.182 6.17566 35.2086 5.9964H36.5431C36.521 6.38591 36.4147 6.72894 36.2244 7.0255C36.0363 7.31985 35.7763 7.55002 35.4443 7.716C35.1123 7.88199 34.7195 7.96498 34.2658 7.96498Z" fill="#263238"/>
<path d="M39.7723 7.96498C39.2478 7.96498 38.7964 7.85875 38.4179 7.64629C38.0417 7.43161 37.7518 7.12842 37.5481 6.73669C37.3445 6.34275 37.2427 5.87689 37.2427 5.3391C37.2427 4.81459 37.3445 4.35426 37.5481 3.95811C37.7518 3.56196 38.0384 3.25322 38.4079 3.03191C38.7798 2.8106 39.2157 2.69994 39.7159 2.69994C40.0523 2.69994 40.3655 2.75416 40.6554 2.86261C40.9475 2.96884 41.202 3.12929 41.4189 3.34396C41.638 3.55864 41.8084 3.82864 41.9301 4.15397C42.0519 4.47708 42.1127 4.85553 42.1127 5.2893V5.67771H37.8071V4.80131H40.7815C40.7815 4.5977 40.7373 4.41733 40.6487 4.2602C40.5602 4.10307 40.4374 3.98024 40.2803 3.89171C40.1253 3.80097 39.945 3.7556 39.7391 3.7556C39.5245 3.7556 39.3341 3.8054 39.1682 3.90499C39.0044 4.00237 38.876 4.13405 38.7831 4.30003C38.6901 4.46381 38.6425 4.64639 38.6403 4.84778V5.68103C38.6403 5.93332 38.6868 6.15132 38.7798 6.33501C38.8749 6.5187 39.0088 6.66034 39.1814 6.75993C39.3541 6.85952 39.5588 6.90931 39.7956 6.90931C39.9527 6.90931 40.0966 6.88718 40.2271 6.84292C40.3577 6.79866 40.4695 6.73226 40.5624 6.64374C40.6554 6.55521 40.7262 6.44677 40.7749 6.31841L42.0828 6.40472C42.0165 6.71899 41.8803 6.99341 41.6745 7.22801C41.4709 7.46039 41.2076 7.64186 40.8844 7.77244C40.5635 7.9008 40.1928 7.96498 39.7723 7.96498Z" fill="#263238"/>
<path d="M44.4498 4.9175V7.86539H43.0356V2.76633H44.3834V3.66597H44.4432C44.556 3.36941 44.7452 3.13482 45.0108 2.9622C45.2764 2.78736 45.5984 2.69994 45.9769 2.69994C46.331 2.69994 46.6397 2.7774 46.903 2.93232C47.1664 3.08724 47.3711 3.30855 47.5172 3.59626C47.6633 3.88175 47.7363 4.22257 47.7363 4.61872V7.86539H46.3221V4.87102C46.3243 4.55897 46.2446 4.31553 46.0831 4.14069C45.9215 3.96364 45.6991 3.87511 45.4158 3.87511C45.2255 3.87511 45.0573 3.91606 44.9112 3.99794C44.7674 4.07983 44.6545 4.19934 44.5726 4.35647C44.4929 4.51139 44.452 4.6984 44.4498 4.9175Z" fill="#263238"/>
<path d="M51.5631 2.76633V3.82864H48.4924V2.76633H51.5631ZM49.1895 1.54469H50.6037V6.29849C50.6037 6.42907 50.6236 6.53087 50.6634 6.6039C50.7033 6.67472 50.7586 6.72452 50.8294 6.75329C50.9025 6.78206 50.9866 6.79645 51.0817 6.79645C51.1481 6.79645 51.2145 6.79091 51.2809 6.77985C51.3473 6.76657 51.3982 6.75661 51.4336 6.74997L51.656 7.80231C51.5852 7.82444 51.4856 7.84989 51.3572 7.87867C51.2289 7.90965 51.0729 7.92846 50.8892 7.9351C50.5484 7.94838 50.2496 7.90301 49.9929 7.79899C49.7383 7.69498 49.5403 7.53342 49.3986 7.31432C49.257 7.09522 49.1873 6.81858 49.1895 6.48439V1.54469Z" fill="#263238"/>
</svg>
