<svg width="39" height="34" viewBox="0 0 39 34" fill="none" xmlns="http://www.w3.org/2000/svg">
<g clip-path="url(#clip0_211_2052)">
<path d="M38.5802 13.95C38.5841 13.921 38.5841 13.8916 38.5802 13.8626C38.5839 13.839 38.5839 13.8149 38.5802 13.7912L38.2965 11.7498C38.2556 11.5056 38.1462 11.2773 37.9806 11.0906L37.9319 11.035L37.8429 10.9476L32.9331 6.80139L33.0708 6.93643C32.9581 6.80426 32.8167 6.69854 32.6569 6.62706C32.497 6.55558 32.3228 6.52016 32.1472 6.5234H30.6564C30.414 6.51869 30.1771 6.59425 29.984 6.73786C29.7811 6.59512 29.5369 6.51994 29.2872 6.5234H27.7964C27.6009 6.52029 27.408 6.56786 27.2373 6.66131C27.0666 6.75476 26.9241 6.89077 26.8242 7.05557C26.6702 7.29095 26.6124 7.57454 26.6621 7.84986L26.8485 9.13661C26.725 9.068 26.5853 9.0324 26.4434 9.03336H19.2246C18.9655 9.03495 18.7125 9.10938 18.4954 9.24781C18.2854 9.37666 18.1168 9.56117 18.0093 9.77998L17.4502 9.31135C17.2302 9.11177 16.9398 9.00359 16.64 9.00953H5.31348C5.05356 9.01417 4.79941 9.08536 4.57622 9.21604C4.27087 9.39125 4.0471 9.67614 3.95235 10.0103L0.355083 21.8055C0.287869 21.9999 0.281257 22.2095 0.336094 22.4076C0.390931 22.6056 0.504733 22.7832 0.662961 22.9176C0.704191 22.9518 0.747482 22.9837 0.792595 23.0128C0.792595 23.0128 0.719666 22.9652 0.679156 22.9255L5.58897 27.0796C5.79666 27.2671 6.06821 27.3719 6.3505 27.3735H17.7662C18.0269 27.3669 18.2812 27.2929 18.5035 27.159C18.6292 27.0917 18.7416 27.0029 18.8357 26.8969L18.8762 26.8413L18.941 26.7619L18.9896 26.6745L19.5243 27.1273C19.729 27.3073 19.9947 27.4063 20.2697 27.4053H31.7097C31.9701 27.3968 32.2239 27.323 32.4469 27.1908C32.5698 27.1193 32.6816 27.0311 32.7792 26.9287L32.8196 26.8731L32.8844 26.7937C32.9189 26.7434 32.9488 26.6903 32.9735 26.6348C33 26.5866 33.0217 26.5361 33.0384 26.4839L36.3197 15.7133V15.618C36.3237 15.5811 36.3237 15.5438 36.3197 15.5068V15.4354C36.3236 15.4117 36.3236 15.3875 36.3197 15.3638C36.3233 15.3136 36.3233 15.2632 36.3197 15.2129H37.3729C37.4646 15.2212 37.5568 15.2212 37.6484 15.2129H37.7213C37.7806 15.1956 37.8377 15.1716 37.8915 15.1414H37.9725L38.1183 15.0302L38.1831 14.9826L38.2965 14.8396V14.792L38.3776 14.6569C38.3731 14.6307 38.3731 14.6038 38.3776 14.5775C38.3733 14.5646 38.3733 14.5507 38.3776 14.5378C38.3948 14.4912 38.4084 14.4434 38.4181 14.3948C38.4143 14.3791 38.4143 14.3628 38.4181 14.3471C38.4142 14.3235 38.4142 14.2993 38.4181 14.2757C38.4181 14.2757 38.5802 13.9659 38.5802 13.95Z" fill="black"/>
<path d="M16.972 9.91505C17.015 9.95318 17.045 10.0033 17.0581 10.0587C17.0711 10.1141 17.0665 10.1721 17.0449 10.2248L13.4558 22.0121C13.4106 22.1408 13.3181 22.2484 13.1965 22.3139C13.0975 22.3788 12.983 22.4171 12.8643 22.4251H1.45674C1.35932 22.4205 1.26703 22.381 1.19748 22.3139C1.1561 22.2764 1.12707 22.2276 1.11408 22.1739C1.10109 22.1201 1.10474 22.0638 1.12456 22.0121L4.72183 10.2248C4.76328 10.0945 4.85284 9.98404 4.97299 9.91505C5.07358 9.85482 5.18756 9.81939 5.30517 9.81179H16.7127C16.8094 9.8127 16.902 9.84962 16.972 9.91505ZM11.017 19.6372L13.1641 12.5997H7.15243L5.01349 19.6372H11.017ZM27.861 10.0342C27.8999 10.0785 27.9486 10.1137 28.0033 10.1371C28.058 10.1605 28.1173 10.1714 28.177 10.1692H29.6597C29.7161 10.1698 29.7717 10.1562 29.8214 10.1298C29.871 10.1034 29.9129 10.065 29.9432 10.0183C29.9695 9.98182 29.9881 9.94052 29.9979 9.89686C30.0076 9.8532 30.0083 9.80807 29.9999 9.76414L29.7083 7.66721C29.6805 7.57016 29.6306 7.48054 29.5625 7.40509C29.5235 7.36075 29.4749 7.32558 29.4202 7.30221C29.3655 7.27883 29.3061 7.26785 29.2465 7.27006H27.7638C27.7073 7.26953 27.6517 7.2831 27.6021 7.30951C27.5524 7.33591 27.5105 7.37428 27.4802 7.42098C27.4235 7.53218 27.3992 7.60367 27.4235 7.66721L27.7233 9.76414C27.7387 9.86624 27.7869 9.96085 27.861 10.0342ZM32.5683 7.65132C32.5405 7.55427 32.4906 7.46465 32.4224 7.38921C32.3851 7.34503 32.3379 7.30987 32.2845 7.28645C32.2312 7.26304 32.173 7.25199 32.1145 7.25418H30.6238C30.5683 7.25263 30.5133 7.26584 30.4648 7.2924C30.4163 7.31897 30.3761 7.35791 30.3483 7.40509C30.2944 7.47556 30.2711 7.56407 30.2835 7.65132L30.5833 9.74825C30.6021 9.84927 30.6498 9.94295 30.721 10.0183C30.7606 10.0618 30.8094 10.0964 30.8639 10.1197C30.9185 10.143 30.9775 10.1544 31.037 10.1533H32.5277C32.5832 10.154 32.6377 10.1405 32.686 10.114C32.7344 10.0875 32.7748 10.049 32.8032 10.0024C32.8314 9.96689 32.8511 9.9256 32.8609 9.88162C32.8708 9.83765 32.8704 9.79208 32.8599 9.74825L32.5683 7.65132ZM26.5566 10.8285L26.4107 9.7959H19.2243C19.1115 9.802 19.0023 9.83766 18.9083 9.89916C18.8487 9.93106 18.7967 9.97528 18.7562 10.0288C18.7156 10.0822 18.6874 10.1437 18.6734 10.2089L18.0739 12.1788C18.0499 12.228 18.0417 12.2832 18.0504 12.3371C18.0591 12.391 18.0842 12.441 18.1224 12.4806C18.1908 12.5436 18.2799 12.5803 18.3736 12.5839H27.1076L24.9605 19.6213H16.2509C16.1386 19.6238 16.0292 19.6568 15.935 19.7166C15.8204 19.7879 15.7367 19.8982 15.7 20.0263L15.0923 21.9962C15.0725 22.0467 15.0673 22.1017 15.0773 22.1549C15.0873 22.2082 15.1121 22.2577 15.149 22.298C15.2152 22.3652 15.3051 22.405 15.4002 22.4092H26.8402C26.9585 22.3992 27.0725 22.3611 27.1723 22.298C27.292 22.2321 27.3817 22.1243 27.4235 21.9962L30.7129 11.2256H27.0103C26.9516 11.2268 26.8932 11.2161 26.8389 11.1942C26.7845 11.1724 26.7354 11.1398 26.6944 11.0985C26.6274 11.0265 26.58 10.9391 26.5566 10.8444V10.8285Z" fill="white"/>
</g>
<defs>
<clipPath id="clip0_211_2052">
<rect width="38.2838" height="20.8821" fill="white" transform="translate(0.299316 6.52319)"/>
</clipPath>
</defs>
</svg>
