<svg width="34" height="34" viewBox="0 0 34 34" fill="none" xmlns="http://www.w3.org/2000/svg">
<g clip-path="url(#clip0_211_2056)">
<path d="M31.7852 9.70056C31.7852 9.72409 31.7852 9.75352 31.779 9.77117C31.7484 10.0007 31.7484 10.2301 31.7667 10.4655C31.779 10.5243 31.7913 10.5832 31.8403 10.6303C31.92 10.7185 32.0426 10.7009 32.0917 10.595C32.1162 10.542 32.1162 10.489 32.1039 10.4361C32.0426 10.2125 32.0304 9.97712 32.0243 9.74763C32.0243 9.73586 32.0243 9.71821 32.0243 9.70056C32.0917 9.69467 32.153 9.68879 32.2082 9.68879C32.2511 9.68291 32.2879 9.67702 32.3186 9.65937C32.4105 9.6123 32.4105 9.51226 32.3124 9.46519C32.2756 9.44754 32.2266 9.44165 32.1837 9.44165C32.0304 9.44754 31.8771 9.44754 31.7238 9.44754C31.6687 9.44754 31.6135 9.45342 31.5583 9.4593C31.5276 9.46519 31.4909 9.46519 31.4664 9.48284C31.4234 9.50049 31.3989 9.52991 31.3989 9.5711C31.405 9.6123 31.4234 9.63583 31.4664 9.65348C31.4909 9.67114 31.5215 9.67702 31.5522 9.67702C31.6257 9.68291 31.7055 9.69467 31.7852 9.70056ZM33.4711 9.97123C33.4711 9.97712 33.4772 9.983 33.4772 9.983C33.5018 10.1419 33.5263 10.2949 33.5447 10.4478C33.5508 10.5008 33.557 10.5479 33.5937 10.5891C33.6734 10.6891 33.7961 10.6773 33.8512 10.5714C33.8758 10.5185 33.8819 10.4655 33.8696 10.4067C33.8328 10.2301 33.8144 10.0536 33.7777 9.88297C33.7531 9.77705 33.7225 9.67702 33.6918 9.58287C33.6734 9.52403 33.6305 9.48284 33.557 9.47696C33.4834 9.46519 33.4282 9.50049 33.3975 9.55345C33.3608 9.60052 33.3301 9.6476 33.3056 9.70056C33.2627 9.7947 33.2259 9.88885 33.1769 9.97712C33.1707 10.0007 33.1646 10.0183 33.1523 10.036C33.1462 10.0242 33.1401 10.0183 33.1401 10.0183C33.0603 9.8712 32.9868 9.72409 32.9071 9.58287C32.8948 9.5711 32.8887 9.55933 32.8826 9.54757C32.8458 9.49461 32.8029 9.46519 32.7354 9.46519C32.6741 9.47107 32.625 9.50638 32.5944 9.55933C32.5821 9.58287 32.5821 9.60052 32.576 9.62406C32.5515 9.81236 32.5208 10.0007 32.4963 10.1889C32.484 10.2949 32.4779 10.4008 32.4779 10.5067C32.4718 10.5302 32.4779 10.5596 32.4902 10.5832C32.5025 10.6303 32.5392 10.6597 32.5883 10.6656C32.6496 10.6715 32.6925 10.6538 32.7109 10.6067C32.7293 10.5714 32.7354 10.542 32.7416 10.5126C32.7661 10.4067 32.7845 10.3066 32.8029 10.2066C32.8151 10.1478 32.8212 10.1007 32.8397 10.036C32.8519 10.0595 32.8641 10.0771 32.8764 10.0948C32.9316 10.1654 32.9868 10.236 33.0542 10.2949C33.1217 10.3419 33.1769 10.3361 33.232 10.2831C33.2443 10.2713 33.2504 10.2654 33.2627 10.2537C33.3179 10.1713 33.3853 10.0889 33.4405 10.0065C33.4527 9.99477 33.4589 9.983 33.4711 9.97123Z" fill="#3A3B7B"/>
<path d="M19.345 9.81622C19.3023 9.92805 19.2942 10.0086 19.3139 10.0756C19.3356 10.1666 19.392 10.1964 19.4686 10.1733C20.1887 10.0024 21.7678 10.4875 22.3524 10.6227C22.4902 10.6511 22.6024 10.4803 22.5083 10.3271C22.371 10.1788 20.7927 9.54376 20.1904 9.50913C19.9543 9.49633 19.5323 9.43823 19.345 9.81622Z" fill="#3A3B7B"/>
<path d="M25.5163 7.76059C25.593 7.80311 25.6359 7.84366 25.6571 7.88897C25.6886 7.94841 25.672 7.98954 25.619 8.01052C25.143 8.23349 24.5096 9.19344 24.2539 9.52451C24.1919 9.60067 24.0489 9.55641 24.0273 9.43117C24.0318 9.28955 24.5933 8.2478 24.9066 7.96407C25.0298 7.85329 25.2332 7.63592 25.5163 7.76059Z" fill="#3A3B7B"/>
<path d="M21.7255 7.28796C21.8177 7.22127 21.9135 7.19789 21.9624 7.24124C22.6806 7.83074 23.0615 8.76426 23.2973 9.61888C23.3062 9.63879 23.3067 9.66737 23.2996 9.69717C23.2967 9.72265 23.2773 9.74956 23.2465 9.77038C23.2136 9.79337 23.1853 9.80037 23.1719 9.78056C22.8572 9.36965 21.0594 7.77088 21.7255 7.28796Z" fill="#3A3B7B"/>
<path d="M6.51707 17.5083C6.6892 17.3853 6.87633 17.2829 7.07435 17.2035C7.28153 17.1466 7.50236 17.156 7.70346 17.2304C7.90452 17.3047 8.07497 17.4398 8.18891 17.6153C8.29084 17.7904 8.33071 17.9925 8.30257 18.1913C8.27444 18.39 8.1798 18.5745 8.03286 18.7172C7.91896 18.8328 7.78965 18.9335 7.64836 19.0167C7.01864 19.4072 6.38331 19.7762 5.74801 20.1667C5.61802 20.2644 5.48011 20.352 5.33562 20.4287C5.11583 20.5339 4.86465 20.5621 4.62551 20.5084C4.38637 20.4547 4.17431 20.3225 4.026 20.1346C3.91513 20.0015 3.82155 19.8561 3.74735 19.7013C3.14548 18.4872 2.52133 17.2784 1.94175 16.0428C1.67425 15.5079 1.45691 14.8928 1.24514 14.2991C1.15352 14.1266 1.13563 13.9267 1.19528 13.7417C1.25493 13.5567 1.38741 13.4014 1.56454 13.3087C1.74167 13.216 1.94948 13.1933 2.14377 13.2455C2.33806 13.2976 2.50351 13.4204 2.60492 13.5878C2.91662 13.9853 3.19255 14.4076 3.4297 14.8501C4.03157 15.9198 4.60558 16.9895 5.18515 18.0272C5.2189 18.0845 5.25611 18.1398 5.29661 18.193C5.73284 18.0169 6.14313 17.7868 6.51707 17.5083Z" fill="#3A3B7B"/>
<path d="M12.7401 17.1351C11.3636 18.6809 9.05643 18.2904 7.89728 16.3007C7.07249 14.8887 6.9276 12.5566 8.72208 11.0857C9.10527 10.7778 9.56347 10.568 10.054 10.476C10.6554 10.3932 11.2686 10.4951 11.8061 10.7669C12.3436 11.0388 12.7777 11.4668 13.0466 11.9897C14.0274 13.7013 13.8881 15.8835 12.7401 17.1351ZM12.1828 13.5301C12.0366 13.1095 11.7432 12.7504 11.3524 12.5138C11.1313 12.3626 10.8626 12.289 10.5917 12.3056C10.3206 12.3221 10.0639 12.4278 9.8645 12.6048C9.0676 13.2841 8.90038 14.894 9.47996 15.8514C9.55385 16.0076 9.66232 16.1463 9.7979 16.258C9.93348 16.3696 10.0929 16.4515 10.2648 16.4979C10.4368 16.5442 10.6173 16.554 10.7936 16.5264C10.9699 16.4988 11.1378 16.4345 11.2856 16.3382C11.7176 16.0167 12.0345 15.5741 12.1923 15.0718C12.3501 14.5695 12.341 14.0325 12.1661 13.5355L12.1828 13.5301Z" fill="#3A3B7B"/>
<path d="M18.3572 14.2042C18.2163 14.2333 18.0707 14.235 17.929 14.2093C17.7874 14.1836 17.6525 14.1309 17.5324 14.0545C17.4273 13.9968 17.3368 13.9174 17.2675 13.8221C17.1982 13.7269 17.1517 13.618 17.1315 13.5034C17.1112 13.3889 17.1177 13.2714 17.1504 13.1595C17.1831 13.0476 17.2413 12.9441 17.3207 12.8563C17.459 12.68 17.6554 12.5537 17.8779 12.498C18.459 12.3361 19.0572 12.2374 19.6613 12.2038C19.794 12.189 19.9284 12.1998 20.0567 12.2355C20.1851 12.2713 20.3046 12.3313 20.4085 12.412C20.5123 12.4927 20.5983 12.5925 20.6614 12.7056C20.7244 12.8186 20.7633 12.9426 20.7758 13.0703C20.95 13.6974 20.969 14.355 20.8315 14.9905C20.33 17.0444 18.6024 17.7504 16.663 17.0925C16.1187 16.9166 15.6413 16.5889 15.2921 16.1511C14.8264 15.624 14.4961 14.9993 14.328 14.3273C14.1918 13.7288 14.2067 13.1078 14.3716 12.516C14.5364 11.9242 14.8463 11.3789 15.2754 10.9255C15.6827 10.4327 16.2112 10.0448 16.8135 9.7969C17.1941 9.59556 17.6395 9.53832 18.0619 9.63643C18.1577 9.66189 18.2446 9.71148 18.3138 9.78007C18.3829 9.84867 18.4316 9.93376 18.4549 10.0265C18.4783 10.1193 18.4753 10.2164 18.4463 10.3076C18.4174 10.3989 18.3635 10.4811 18.2903 10.5457C18.1512 10.6666 18 10.7741 17.8389 10.8666C17.3435 11.1695 16.9123 11.5597 16.5683 12.0166C16.3428 12.3123 16.1875 12.6518 16.1134 13.0113C16.0392 13.3707 16.048 13.7414 16.1392 14.0973C16.2656 14.5825 16.5461 15.018 16.9417 15.3435C18.1677 16.4132 19.7615 15.3809 19.4829 13.9207C19.0761 14.017 18.7194 14.1186 18.3572 14.2042Z" fill="#3A3B7B"/>
<path d="M25.8476 17.2208C24.0365 18.2906 21.9745 17.2208 21.5231 14.9744C21.1943 13.3698 21.8185 11.1233 24.0031 10.2676C24.4679 10.0894 24.972 10.0268 25.4687 10.0857C26.0655 10.1905 26.613 10.4725 27.0339 10.8919C27.4548 11.3112 27.728 11.8468 27.8149 12.4231C28.1827 14.3325 27.3468 16.3704 25.8476 17.2208ZM26.4774 13.6212C26.4769 13.1768 26.3131 12.7469 26.0149 12.407C25.8555 12.1968 25.625 12.0462 25.3628 11.9808C25.1006 11.9155 24.8229 11.9394 24.577 12.0487C23.5962 12.4552 22.9052 13.9314 23.156 15.0172C23.1751 15.1876 23.2328 15.3519 23.325 15.4987C23.4172 15.6455 23.5417 15.7711 23.6898 15.8669C23.8379 15.9627 24.006 16.0262 24.1823 16.0532C24.3587 16.0801 24.5391 16.0697 24.7108 16.0228C25.2292 15.8489 25.6781 15.5241 25.9948 15.0935C26.3116 14.663 26.4803 14.1482 26.4774 13.6212Z" fill="#3A3B7B"/>
<path d="M29.646 17.6702C29.6187 17.866 29.5115 18.0433 29.3479 18.1632C29.1843 18.283 28.9779 18.3356 28.7739 18.3094C28.5699 18.2832 28.3852 18.1802 28.2603 18.0232C28.1354 17.8663 28.0806 17.6681 28.108 17.4723C28.1353 17.2766 28.2426 17.0993 28.4061 16.9794C28.5697 16.8595 28.7761 16.8069 28.9801 16.8332C29.1841 16.8594 29.3688 16.9623 29.4937 17.1193C29.6186 17.2763 29.6734 17.4745 29.646 17.6702ZM29.1612 10.4548C29.2672 10.2995 29.4227 10.1812 29.6045 10.1175C29.7863 10.0539 29.9846 10.0484 30.1699 10.1018C30.3583 10.1471 30.5247 10.253 30.6414 10.402C30.7581 10.551 30.8179 10.7339 30.8108 10.9202C30.7862 11.2189 30.7397 11.5156 30.6715 11.808C30.4876 12.7976 30.3092 13.7871 30.1142 14.7659C30.025 15.1564 29.908 15.5308 29.7798 15.9265C29.7352 16.0503 29.6607 16.1621 29.5625 16.2528C29.5014 16.3211 29.4234 16.3734 29.3356 16.405C29.2479 16.4367 29.1532 16.4466 29.0604 16.4338C28.9677 16.421 28.8797 16.3859 28.8048 16.3319C28.7299 16.2778 28.6704 16.2064 28.6318 16.1245C28.5656 15.9774 28.5296 15.8193 28.5259 15.6591C28.5259 14.9959 28.5259 14.3273 28.5705 13.6587C28.6463 12.7045 28.7953 11.757 29.0163 10.8239C29.0424 10.6989 29.0914 10.5793 29.1612 10.4709V10.4548Z" fill="#3A3B7B"/>
<path fill-rule="evenodd" clip-rule="evenodd" d="M4.16243 21.9682C4.09663 22.1092 4.07859 22.2663 4.11074 22.4176C4.13213 22.617 4.17912 22.8131 4.25062 23.0015C4.3399 23.2322 4.4398 23.4603 4.56298 23.7414C4.5913 23.8061 4.6209 23.8736 4.65188 23.9447C4.81799 24.3255 5.02642 24.8123 5.30443 25.5168C5.38311 25.7169 5.45299 25.9186 5.52336 26.1218C5.55178 26.2039 5.58031 26.2862 5.60951 26.3687C5.71418 26.6622 5.89428 26.9258 6.13301 27.1347C6.23438 27.2495 6.36884 27.3332 6.51961 27.3751C6.67332 27.4177 6.83681 27.415 6.98889 27.3673C7.14097 27.3195 7.27454 27.229 7.37226 27.1074C7.46807 26.9881 7.52504 26.8444 7.53612 26.6943C7.59828 26.4019 7.57706 26.0987 7.47462 25.8168C7.31202 25.3487 7.12681 24.8799 6.91322 24.4214L6.91224 24.4194C6.56088 23.7021 6.20372 22.9897 5.82966 22.277L5.82686 22.272C5.71736 22.0864 5.57505 21.9204 5.40634 21.7816C5.29681 21.6576 5.14572 21.5741 4.97888 21.5452C4.80847 21.5158 4.63272 21.5455 4.48301 21.6289C4.34138 21.7066 4.22911 21.8253 4.16243 21.9682Z" fill="#3A3B7B"/>
<path fill-rule="evenodd" clip-rule="evenodd" d="M9.5292 20.2017C8.97827 20.0648 8.4029 20.0448 7.84319 20.1433C7.40967 20.1843 6.98329 20.2802 6.68722 20.4703C6.53664 20.5671 6.41489 20.6913 6.34717 20.8492C6.27908 21.008 6.27038 21.1896 6.32619 21.3919C6.42807 21.7625 6.56038 22.1228 6.69222 22.482L6.71358 22.5402L6.71409 22.5415C7.11107 23.5849 7.51183 24.6248 7.91624 25.6611C7.9634 25.8245 8.03009 25.982 8.11496 26.1306L8.11655 26.1333C8.22867 26.318 8.37248 26.4831 8.5419 26.6218C8.62663 26.698 8.73141 26.7508 8.84503 26.7743C8.95976 26.7981 9.07908 26.7912 9.18999 26.7543C9.30094 26.7175 9.39918 26.6521 9.47405 26.5653C9.5477 26.4799 9.59594 26.3771 9.61365 26.2676C9.68674 25.9703 9.66333 25.6585 9.54649 25.3743C9.51003 25.2786 9.48143 25.1808 9.45129 25.0779C9.44124 25.0436 9.43105 25.0087 9.4203 24.9732C10.346 24.6259 11.331 24.1589 11.6773 23.0725C11.813 22.6971 11.8243 22.2906 11.7097 21.9087C11.595 21.5264 11.3597 21.1875 11.0362 20.9388C10.5959 20.5906 10.0815 20.339 9.5292 20.2017ZM8.00209 21.5342C8.02032 21.5292 8.03869 21.5245 8.0571 21.5202C8.65977 21.4292 9.27635 21.5504 9.79335 21.8613C10.0212 22.0133 10.1145 22.1823 10.1306 22.3449C10.1471 22.5123 10.0837 22.6937 9.95627 22.8681C9.71553 23.1975 9.27621 23.4611 8.87938 23.5103C8.59008 22.8708 8.2963 22.2055 8.00209 21.5342Z" fill="#3A3B7B"/>
<path d="M13.2021 19.0314C13.8582 18.7406 14.6709 18.6903 15.3068 18.8948C15.467 18.9396 15.606 19.0364 15.6999 19.1688C15.7933 19.3003 15.8364 19.4588 15.822 19.6173C15.8211 19.7201 15.7948 19.8213 15.7453 19.9126C15.6949 20.0056 15.6219 20.0855 15.5326 20.1457C15.4432 20.2058 15.3401 20.2445 15.2319 20.2583C15.1236 20.2722 15.0136 20.2608 14.9109 20.2251L14.9031 20.2224L14.8958 20.2187C14.8432 20.1923 14.7874 20.1725 14.7297 20.1595L14.7261 20.1588C14.2787 20.0447 13.8567 20.2337 13.7026 20.4659C13.6291 20.5766 13.62 20.6883 13.6812 20.79C13.7467 20.8989 13.9076 21.021 14.233 21.1081C14.3225 21.1317 14.4142 21.1544 14.5073 21.1776C14.7646 21.2415 15.032 21.3079 15.2906 21.4L15.2916 21.4004C16.4846 21.836 16.9288 22.7383 16.7767 23.5869C16.6263 24.4262 15.896 25.1899 14.7979 25.3701C14.3983 25.4551 13.9824 25.4385 13.5915 25.3221C13.1996 25.2052 12.8463 24.992 12.5668 24.7035L12.5595 24.696C12.4712 24.5873 12.4119 24.4597 12.3856 24.3242C12.3614 24.2019 12.3741 24.0756 12.4222 23.96C12.4701 23.8451 12.5511 23.7457 12.6555 23.6733C12.7659 23.5912 12.8989 23.5419 13.0381 23.5316C13.1769 23.5214 13.3157 23.5503 13.4375 23.6148C13.5592 23.6713 13.6724 23.7432 13.774 23.8288L13.776 23.8304C13.9557 23.9882 14.1732 24.0293 14.3817 23.9912C14.5933 23.9526 14.7922 23.8324 14.9202 23.673C15.0473 23.5146 15.0984 23.3264 15.0378 23.1437C14.9768 22.9597 14.7936 22.7535 14.391 22.5812C14.2857 22.5383 14.1766 22.5037 14.0631 22.47C14.0324 22.4609 14.0013 22.4519 13.9698 22.4427C13.8859 22.4183 13.7995 22.3931 13.7148 22.3653C13.6565 22.3462 13.5986 22.3282 13.5413 22.3102C13.3847 22.2613 13.232 22.2136 13.0851 22.1496C12.7653 22.045 12.489 21.8444 12.2973 21.5772C12.1049 21.309 12.008 20.9883 12.0212 20.6629C12.0222 19.8701 12.5425 19.3238 13.2021 19.0314Z" fill="#3A3B7B"/>
<path d="M21.5198 18.9468C21.3926 18.8872 21.2519 18.8589 21.1105 18.8645C20.969 18.8701 20.8312 18.9093 20.7096 18.9788C20.5887 19.0478 20.4874 19.1444 20.4149 19.2601C20.3484 19.3575 20.3024 19.4664 20.2794 19.5808C20.2565 19.6951 20.257 19.8125 20.281 19.9265C20.3047 20.073 20.331 20.2155 20.3569 20.3561C20.3999 20.5886 20.4416 20.8159 20.4692 21.0477L20.4702 21.0536C20.533 21.4171 20.5659 21.7847 20.5688 22.1531L20.5691 22.1583C20.5905 22.5562 20.4493 22.9462 20.1757 23.2458L20.1713 23.2511C20.0823 23.3607 19.9633 23.4442 19.8275 23.4926C19.6918 23.5409 19.5447 23.552 19.4028 23.5246C19.2609 23.4973 19.1297 23.4326 19.0239 23.3378C18.9181 23.2429 18.8417 23.1214 18.8036 22.9874C18.7223 22.7049 18.6753 22.4143 18.6633 22.1216L18.8022 19.9991C18.8042 19.9714 18.8066 19.943 18.809 19.9143C18.8142 19.8498 18.8197 19.7842 18.8219 19.7229C18.8252 19.6328 18.8224 19.5401 18.8005 19.4524C18.7781 19.3628 18.7355 19.2775 18.66 19.2049C18.5852 19.133 18.4843 19.0799 18.3573 19.0438C18.1276 18.98 17.9333 18.982 17.7715 19.048C17.6095 19.1139 17.4986 19.2363 17.4201 19.3777C17.3422 19.5179 17.2921 19.6839 17.2542 19.8501C17.2262 19.9735 17.2036 20.103 17.1821 20.2263C17.1747 20.2688 17.1675 20.3105 17.1601 20.351L17.1599 20.3522C17.0451 21.0282 17.011 21.7146 17.0581 22.3981C17.0669 22.7675 17.1471 23.1321 17.2948 23.4732C17.4614 23.9135 17.7632 24.2949 18.1603 24.5672C18.5583 24.84 19.0332 24.9904 19.5221 24.9983C20.0111 25.0062 20.491 24.8714 20.8984 24.6117C21.305 24.3523 21.6202 23.9806 21.8022 23.5458C22.0568 22.9918 22.1763 22.3893 22.1517 21.7843C22.1367 21.3426 22.1117 20.8975 22.0868 20.4547C22.0745 20.2374 22.0623 20.0207 22.0514 19.8052C22.0459 19.5892 21.9716 19.3799 21.8386 19.2056C21.7563 19.0953 21.6468 19.0064 21.5198 18.9468Z" fill="#3A3B7B"/>
<path d="M26.0222 22.2748C26.0093 22.2905 25.9957 22.3068 25.9815 22.3238C25.878 21.7508 25.7821 21.1781 25.6861 20.6045C25.6516 20.3987 25.617 20.192 25.5822 19.9859L25.5782 19.963L25.5655 19.9431C25.5415 19.9057 25.5392 19.8691 25.5392 19.7909V19.7818L25.5377 19.7729C25.5117 19.6115 25.4356 19.4612 25.3194 19.3418C25.2035 19.2228 25.053 19.1399 24.8874 19.104C24.7221 19.0648 24.5484 19.0734 24.3881 19.1288C24.2283 19.184 24.0889 19.2832 23.9875 19.4139C23.9032 19.5142 23.8341 19.6255 23.7823 19.7444C23.6648 20.0006 23.5462 20.2574 23.4273 20.515L23.4252 20.5194C23.1284 21.1623 22.8296 21.8095 22.5395 22.4618L22.5386 22.4639C22.3605 22.8868 22.2134 23.3325 22.0669 23.7767C22.0376 23.8654 22.0084 23.9541 21.9789 24.0425C21.926 24.1827 21.9029 24.3316 21.9108 24.4805C21.9012 24.6137 21.9344 24.7467 22.0061 24.8613C22.0792 24.9783 22.1887 25.0703 22.3191 25.1245C22.4574 25.1827 22.6119 25.195 22.7584 25.1596C22.9045 25.1243 23.0342 25.0433 23.1272 24.9295C23.2459 24.7894 23.348 24.6365 23.4313 24.4746C23.6771 23.992 23.912 23.5036 24.1458 23.0173C24.2363 22.8292 24.3242 22.6608 24.4242 22.4773C24.4311 22.4999 24.4381 22.522 24.4453 22.5441C24.5501 22.9871 24.7271 23.4113 24.9696 23.8014C25.0155 23.884 25.0794 23.9562 25.157 24.0131C25.2355 24.0706 25.3261 24.111 25.4226 24.1315C25.519 24.152 25.6189 24.1521 25.7154 24.1317C25.8117 24.1115 25.9026 24.071 25.9811 24.0138L26.1366 23.9021L27.3435 22.9264L27.2721 23.3629C27.1742 23.963 27.077 24.558 26.9737 25.1532C26.9061 25.4169 26.9062 25.6925 26.974 25.9562C27.0033 26.1046 27.0781 26.2412 27.1888 26.3487C27.3004 26.457 27.4433 26.5306 27.599 26.5599C27.7547 26.5893 27.9161 26.573 28.062 26.5132C28.2059 26.4544 28.3282 26.3559 28.4138 26.2304C28.6128 25.9935 28.7366 25.7066 28.7706 25.404C28.8219 24.9766 28.8797 24.5434 28.9376 24.1103C29.0043 23.6111 29.071 23.112 29.1273 22.6226L29.1275 22.621C29.1817 22.0852 29.2079 21.5472 29.2061 21.0089C29.218 20.8388 29.1739 20.6693 29.0798 20.5245C28.9855 20.3792 28.8457 20.2662 28.6806 20.2015C28.5088 20.1266 28.3165 20.1065 28.1319 20.1444C27.9486 20.182 27.7826 20.2748 27.6581 20.4092C27.4355 20.6068 27.2267 20.8182 27.0329 21.0421L27.0316 21.0436C26.8202 21.2966 26.6101 21.5544 26.4014 21.8107C26.2746 21.9664 26.148 22.1218 26.0222 22.2748Z" fill="#3A3B7B"/>
</g>
<defs>
<clipPath id="clip0_211_2056">
<rect width="32.7153" height="20.186" fill="white" transform="translate(1.16064 7.21924)"/>
</clipPath>
</defs>
</svg>
