<svg width="39" height="34" viewBox="0 0 39 34" fill="none" xmlns="http://www.w3.org/2000/svg">
<g clip-path="url(#clip0_211_2080)">
<path d="M38.8868 13.95C38.8908 13.921 38.8908 13.8916 38.8868 13.8626C38.8906 13.839 38.8906 13.8149 38.8868 13.7912L38.6032 11.7498C38.5623 11.5056 38.4529 11.2773 38.2872 11.0906L38.2386 11.035L38.1495 10.9476L33.2397 6.80139L33.3774 6.93643C33.2648 6.80426 33.1233 6.69854 32.9635 6.62706C32.8037 6.55558 32.6295 6.52016 32.4538 6.5234H30.9631C30.7206 6.51869 30.4838 6.59425 30.2906 6.73786C30.0877 6.59512 29.8435 6.51994 29.5938 6.5234H28.103C27.9075 6.52029 27.7147 6.56786 27.5439 6.66131C27.3732 6.75476 27.2307 6.89077 27.1308 7.05557C26.9769 7.29095 26.919 7.57454 26.9688 7.84986L27.1551 9.13661C27.0317 9.068 26.8919 9.0324 26.75 9.03336H19.5312C19.2722 9.03495 19.0191 9.10938 18.802 9.24781C18.592 9.37666 18.4235 9.56117 18.3159 9.77998L17.7568 9.31135C17.5368 9.11177 17.2464 9.00359 16.9467 9.00953H5.62012C5.3602 9.01417 5.10605 9.08536 4.88286 9.21604C4.57752 9.39125 4.35374 9.67614 4.25899 10.0103L0.661724 21.8055C0.59451 21.9999 0.587898 22.2095 0.642735 22.4076C0.697571 22.6056 0.811373 22.7832 0.969602 22.9176C1.01083 22.9518 1.05412 22.9837 1.09924 23.0128C1.09924 23.0128 1.02631 22.9652 0.985797 22.9255L5.89561 27.0796C6.1033 27.2671 6.37485 27.3719 6.65714 27.3735H18.0728C18.3335 27.3669 18.5879 27.2929 18.8101 27.159C18.9358 27.0917 19.0483 27.0029 19.1423 26.8969L19.1828 26.8413L19.2476 26.7619L19.2962 26.6745L19.831 27.1273C20.0357 27.3073 20.3013 27.4063 20.5763 27.4053H32.0163C32.2767 27.3968 32.5306 27.323 32.7536 27.1908C32.8765 27.1193 32.9883 27.0311 33.0858 26.9287L33.1263 26.8731L33.1911 26.7937C33.2255 26.7434 33.2554 26.6903 33.2802 26.6348C33.3067 26.5866 33.3284 26.5361 33.345 26.4839L36.6263 15.7133V15.618C36.6303 15.5811 36.6303 15.5438 36.6263 15.5068V15.4354C36.6302 15.4117 36.6302 15.3875 36.6263 15.3638C36.63 15.3136 36.63 15.2632 36.6263 15.2129H37.6796C37.7712 15.2212 37.8634 15.2212 37.955 15.2129H38.028C38.0873 15.1956 38.1444 15.1716 38.1981 15.1414H38.2792L38.4249 15.0302L38.4898 14.9826L38.6032 14.8396V14.792L38.6842 14.6569C38.6797 14.6307 38.6797 14.6038 38.6842 14.5775C38.6799 14.5646 38.6799 14.5507 38.6842 14.5378C38.7014 14.4912 38.715 14.4434 38.7247 14.3948C38.721 14.3791 38.721 14.3628 38.7247 14.3471C38.7208 14.3235 38.7208 14.2993 38.7247 14.2757C38.7247 14.2757 38.8868 13.9659 38.8868 13.95Z" fill="black"/>
<path d="M17.2786 9.91505C17.3216 9.95318 17.3517 10.0033 17.3647 10.0587C17.3778 10.1141 17.3731 10.1721 17.3516 10.2248L13.7624 22.0121C13.7172 22.1408 13.6247 22.2484 13.5031 22.3139C13.4042 22.3788 13.2896 22.4171 13.1709 22.4251H1.76338C1.66596 22.4205 1.57367 22.381 1.50412 22.3139C1.46274 22.2764 1.43371 22.2276 1.42072 22.1739C1.40773 22.1201 1.41139 22.0638 1.4312 22.0121L5.02847 10.2248C5.06992 10.0945 5.15948 9.98404 5.27963 9.91505C5.38022 9.85482 5.4942 9.81939 5.61181 9.81179H17.0193C17.116 9.8127 17.2087 9.84962 17.2786 9.91505ZM11.3237 19.6372L13.4707 12.5997H7.45907L5.32013 19.6372H11.3237ZM28.1676 10.0342C28.2066 10.0785 28.2552 10.1137 28.3099 10.1371C28.3646 10.1605 28.424 10.1714 28.4836 10.1692H29.9663C30.0228 10.1698 30.0784 10.1562 30.128 10.1298C30.1777 10.1034 30.2196 10.065 30.2499 10.0183C30.2762 9.98182 30.2948 9.94052 30.3045 9.89686C30.3143 9.8532 30.3149 9.80807 30.3065 9.76414L30.0149 7.66721C29.9871 7.57016 29.9373 7.48054 29.8691 7.40509C29.8301 7.36075 29.7815 7.32558 29.7268 7.30221C29.6721 7.27883 29.6127 7.26785 29.5531 7.27006H28.0704C28.014 7.26953 27.9583 7.2831 27.9087 7.30951C27.8591 7.33591 27.8171 7.37428 27.7869 7.42098C27.7301 7.53218 27.7058 7.60367 27.7301 7.66721L28.0299 9.76414C28.0453 9.86624 28.0936 9.96085 28.1676 10.0342ZM32.8749 7.65132C32.8471 7.55427 32.7972 7.46465 32.7291 7.38921C32.6918 7.34503 32.6446 7.30987 32.5912 7.28645C32.5378 7.26304 32.4796 7.25199 32.4212 7.25418H30.9304C30.8749 7.25263 30.82 7.26584 30.7715 7.2924C30.723 7.31897 30.6827 7.35791 30.655 7.40509C30.6011 7.47556 30.5777 7.56407 30.5902 7.65132L30.8899 9.74825C30.9087 9.84927 30.9565 9.94295 31.0277 10.0183C31.0673 10.0618 31.116 10.0964 31.1706 10.1197C31.2251 10.143 31.2841 10.1544 31.3436 10.1533H32.8344C32.8898 10.154 32.9444 10.1405 32.9927 10.114C33.0411 10.0875 33.0815 10.049 33.1099 10.0024C33.1381 9.96689 33.1577 9.9256 33.1676 9.88162C33.1774 9.83765 33.177 9.79208 33.1666 9.74825L32.8749 7.65132ZM26.8632 10.8285L26.7174 9.7959H19.531C19.4181 9.802 19.309 9.83766 19.215 9.89916C19.1553 9.93106 19.1034 9.97528 19.0628 10.0288C19.0223 10.0822 18.994 10.1437 18.9801 10.2089L18.3805 12.1788C18.3566 12.228 18.3484 12.2832 18.357 12.3371C18.3658 12.391 18.3909 12.441 18.4291 12.4806C18.4974 12.5436 18.5866 12.5803 18.6803 12.5839H27.4142L25.2672 19.6213H16.5575C16.4452 19.6238 16.3359 19.6568 16.2416 19.7166C16.127 19.7879 16.0433 19.8982 16.0066 20.0263L15.399 21.9962C15.3791 22.0467 15.3739 22.1017 15.3839 22.1549C15.394 22.2082 15.4188 22.2577 15.4557 22.298C15.5219 22.3652 15.6117 22.405 15.7068 22.4092H27.1468C27.2651 22.3992 27.3792 22.3611 27.479 22.298C27.5986 22.2321 27.6884 22.1243 27.7301 21.9962L31.0195 11.2256H27.3169C27.2582 11.2268 27.1999 11.2161 27.1455 11.1942C27.0912 11.1724 27.042 11.1398 27.001 11.0985C26.934 11.0265 26.8866 10.9391 26.8632 10.8444V10.8285Z" fill="white"/>
</g>
<defs>
<clipPath id="clip0_211_2080">
<rect width="38.2838" height="20.8821" fill="white" transform="translate(0.605957 6.52319)"/>
</clipPath>
</defs>
</svg>
